<?xml version="1.0" encoding="UTF-8"?>
<svg id="Layer_2" data-name="Layer 2" xmlns="http://www.w3.org/2000/svg" viewBox="0 0 1111.87 173.67">
  <defs>
    <style>
      .cls-1 {
        fill: #16325b;
      }
    </style>
  </defs>
  <g id="Layer_1-2" data-name="Layer 1">
    <g>
      <path class="cls-1" d="M389.46,102.76c36.99,0,55.49-25.69,55.49-51.38S426.46,1.03,387.41,1.03c-28.77-1.03-134.62-1.03-134.62-1.03v173.67h32.88V27.75h103.79c18.5,0,27.74,6.16,27.74,23.64,0,14.38-9.25,22.61-26.72,22.61h-86.32l102.76,98.65h40.08l-73.99-71.93c7.2,2.06,15.42,2.06,16.44,2.06Z"/>
      <rect class="cls-1" x="478.86" y="0" width="31.86" height="173.66"/>
      <polygon class="cls-1" points="914.57 26.72 914.57 0 846.75 0 814.89 0 758.37 0 739.88 26.72 814.89 26.72 814.89 173.67 846.75 173.67 846.75 26.72 914.57 26.72"/>
      <path class="cls-1" d="M677.19,71.93h-81.18c-16.44,0-25.69-7.19-25.69-21.58,0-16.44,11.3-23.63,25.69-23.63h110.98L721.38,0h-126.4c-28.78,0-52.41,21.58-52.41,51.38,0,26.71,22.61,48.29,53.43,48.29h81.18c18.5,0,28.78,8.22,28.78,23.64,0,13.36-11.3,22.61-28.78,22.61h-112.01l-16.44,27.74h132.56c33.91,0,52.41-24.66,52.41-52.4,0-25.7-21.58-49.33-56.52-49.33Z"/>
      <path class="cls-1" d="M102.76,11.31C95.57,22.61,0,173.67,0,173.67h33.91l31.86-51.38h67.82l17.47-27.75h-67.82l36.99-59.6,86.32,137.7h33.91S145.92,23.63,137.7,10.28c-9.25-13.36-25.69-12.33-34.93,1.03Z"/>
      <path class="cls-1" d="M1077.96,173.67h33.91S1017.33,24.66,1009.11,11.31c-9.24-15.41-25.69-14.39-34.94-1.03-7.2,11.3-102.76,162.36-102.76,162.36h33.91l31.85-51.38h68.85l17.47-27.75h-67.82l37-59.6,85.29,139.76Z"/>
    </g>
  </g>
</svg>