<?xml version="1.0" encoding="UTF-8"?>
<svg id="Layer_2" data-name="Layer 2" xmlns="http://www.w3.org/2000/svg" viewBox="0 0 8191.98 4898.82">
  <defs>
    <style>
      .cls-1 {
        fill: #f90;
      }

      .cls-1, .cls-2 {
        fill-rule: evenodd;
      }

      .cls-2 {
        fill: #252f3e;
      }
    </style>
  </defs>
  <g id="Layer_1-2" data-name="Layer 1">
    <g id="Layer_1-3" data-name="Layer_1">
      <g id="amazon-web-services-2.svg">
        <path class="cls-2" d="M2308.58,1779.18c0,100.81,10.89,182.55,29.96,242.49,21.8,59.94,49.05,125.34,87.2,196.17,13.62,21.8,19.07,43.6,19.07,62.67,0,27.25-16.34,54.48-51.76,81.74l-171.66,114.43c-24.53,16.34-49.03,24.53-70.83,24.53-27.25,0-54.48-13.62-81.74-38.14-38.14-40.87-70.83-84.47-98.08-128.07-27.25-46.33-54.48-98.08-84.47-160.75-212.53,250.67-479.53,375.99-801.03,375.99-228.85,0-411.4-65.4-544.9-196.17-133.5-130.79-201.62-305.16-201.62-523.12,0-231.6,81.74-419.59,247.95-561.27s386.9-212.51,667.51-212.51c92.63,0,188.01,8.16,288.82,21.8,100.81,13.62,204.35,35.41,313.32,59.94v-198.89c0-207.08-43.6-351.46-128.07-435.93-87.2-84.47-234.31-125.34-444.11-125.34-95.35,0-193.44,10.89-294.25,35.41s-198.89,54.48-294.25,92.63c-43.6,19.07-76.28,29.96-95.35,35.41s-32.69,8.16-43.6,8.16c-38.14,0-57.21-27.25-57.21-84.47v-133.5c0-43.6,5.46-76.28,19.07-95.35s38.14-38.14,76.28-57.21c95.35-49.05,209.8-89.92,343.3-122.61,133.52-35.41,275.18-51.76,425.04-51.76,324.23,0,561.27,73.56,713.83,220.69,149.86,147.14,226.15,370.53,226.15,670.24v882.77h5.46l-.02.02ZM1202.4,2193.31c89.92,0,182.55-16.34,280.63-49.03s185.28-92.63,258.83-174.37c43.6-51.76,76.28-108.99,92.65-174.37,16.34-65.4,27.23-144.41,27.23-237.04v-114.43c-79.01-19.07-163.48-35.41-250.65-46.33-87.2-10.89-171.64-16.34-256.11-16.34-182.55,0-316.05,35.41-405.97,108.99-89.92,73.56-133.5,177.09-133.5,313.32,0,128.07,32.69,223.42,100.81,288.79,65.4,68.12,160.75,100.81,286.09,100.81l-.02-.02ZM3390.22,2487.55c-49.05,0-81.74-8.16-103.54-27.25-21.8-16.34-40.87-54.48-57.21-106.27L2589.19,247.95c-16.34-54.48-24.53-89.9-24.53-108.97,0-43.6,21.8-68.12,65.4-68.12h267.02c51.76,0,87.2,8.18,106.27,27.25,21.8,16.34,38.14,54.48,54.48,106.27l457.73,1803.65,425.04-1803.65c13.62-54.48,29.96-89.92,51.76-106.27s59.94-27.25,108.99-27.25h217.96c51.76,0,87.2,8.18,108.99,27.25,21.8,16.34,40.87,54.48,51.76,106.27l430.47,1825.45,471.37-1825.45c16.34-54.48,35.41-89.92,54.48-106.27,21.8-16.34,57.21-27.25,106.27-27.25h253.38c43.6,0,68.12,21.8,68.12,68.12,0,13.62-2.73,27.25-5.46,43.6s-8.18,38.14-19.07,68.12l-656.62,2106.09c-16.34,54.48-35.41,89.9-57.21,106.27-21.8,16.34-57.21,27.25-103.54,27.25h-234.31c-51.78,0-87.2-8.18-108.99-27.25s-40.87-54.48-51.76-108.99l-422.31-1757.35-419.59,1754.62c-13.62,54.48-29.98,89.9-51.78,108.97s-59.94,27.25-108.97,27.25h-234.33ZM6891.29,2561.11c-141.68,0-283.36-16.34-419.59-49.03s-242.49-68.12-313.32-108.99c-43.6-24.53-73.56-51.76-84.47-76.28-10.89-24.53-16.34-51.76-16.34-76.28v-138.95c0-57.21,21.8-84.47,62.67-84.47,16.34,0,32.69,2.73,49.03,8.18s40.87,16.34,68.12,27.25c92.63,40.87,193.44,73.56,299.7,95.35,108.99,21.8,215.24,32.69,324.23,32.69,171.64,0,305.16-29.98,397.79-89.92s141.68-147.14,141.68-258.83c0-76.28-24.53-138.95-73.56-190.71-49.05-51.78-141.68-98.08-275.18-141.68l-395.06-122.61c-198.89-62.67-346.03-155.3-435.93-277.9-89.9-119.88-136.22-253.38-136.22-395.06,0-114.43,24.53-215.24,73.56-302.43s114.43-163.48,196.17-223.42c81.74-62.67,174.37-108.97,283.36-141.68S6861.35,0,6981.23,0c59.94,0,122.61,2.73,182.55,10.89,62.67,8.18,119.88,19.07,177.09,29.96,54.48,13.62,106.27,27.25,155.3,43.6s87.2,32.69,114.43,49.05c38.14,21.8,65.4,43.6,81.74,68.1,16.34,21.8,24.53,51.78,24.53,89.92v128.07c0,57.21-21.8,87.2-62.67,87.2-21.8,0-57.21-10.91-103.54-32.71-155.3-70.83-329.69-106.27-523.12-106.27-155.3,0-277.9,24.53-362.37,76.28s-128.07,130.77-128.07,242.49c0,76.28,27.25,141.68,81.74,193.44s155.3,103.54,299.7,149.84l386.9,122.61c196.17,62.67,337.85,149.86,422.31,261.56s125.34,239.76,125.34,381.44c0,117.15-24.53,223.42-70.83,316.05-49.05,92.65-114.43,174.37-198.89,239.76-84.47,68.1-185.28,117.15-302.43,152.57-122.61,38.14-250.65,57.21-389.63,57.21l-.02.05Z"/>
        <path class="cls-1" d="M7406.25,3885.29c-896.38,662.08-2198.74,1013.54-3318.52,1013.54-1569.37,0-2983.4-580.34-4051.44-1544.82-84.47-76.28-8.16-179.82,92.65-119.88,1155.22,670.24,2580.18,1076.21,4054.15,1076.21,994.47,0,2087.01-207.08,3092.39-632.12,149.84-68.12,277.9,98.08,130.77,207.08Z"/>
        <path class="cls-1" d="M7779.51,3460.24c-114.43-147.14-757.43-70.85-1048.95-35.41-87.2,10.89-100.81-65.4-21.8-122.61,512.21-359.64,1354.11-256.11,1452.19-136.22,98.08,122.61-27.25,964.51-506.76,1367.73-73.56,62.67-144.41,29.98-111.7-51.76,108.99-269.75,351.46-877.31,237.04-1021.72h-.02Z"/>
      </g>
    </g>
  </g>
</svg>