<?xml version="1.0" encoding="UTF-8"?>
<svg id="Layer_2" data-name="Layer 2" xmlns="http://www.w3.org/2000/svg" viewBox="0 0 480.01 289.9">
  <defs>
    <style>
      .cls-1 {
        fill: #fff;
      }
    </style>
  </defs>
  <g id="Layer_1-2" data-name="Layer 1">
    <g>
      <path class="cls-1" d="M135.28,105.29c0,5.97.64,10.8,1.76,14.35,1.28,3.55,2.87,7.42,5.11,11.61.8,1.29,1.12,2.58,1.12,3.71,0,1.61-.96,3.22-3.03,4.84l-10.06,6.77c-1.44.97-2.87,1.45-4.15,1.45-1.6,0-3.19-.81-4.79-2.26-2.24-2.42-4.15-5-5.75-7.58-1.6-2.74-3.19-5.8-4.95-9.51-12.45,14.83-28.1,22.25-46.94,22.25-13.41,0-24.11-3.87-31.93-11.61s-11.81-18.06-11.81-30.96c0-13.7,4.79-24.83,14.53-33.21s22.67-12.58,39.11-12.58c5.43,0,11.02.48,16.92,1.29s11.97,2.1,18.36,3.55v-11.77c0-12.25-2.55-20.8-7.5-25.8-5.11-5-13.73-7.42-26.02-7.42-5.59,0-11.33.64-17.24,2.1-5.91,1.45-11.65,3.22-17.24,5.48-2.55,1.13-4.47,1.77-5.59,2.1-1.12.32-1.92.48-2.55.48-2.24,0-3.35-1.61-3.35-5v-7.9c0-2.58.32-4.51,1.12-5.64s2.24-2.26,4.47-3.39c5.59-2.9,12.29-5.32,20.12-7.26,7.82-2.1,16.12-3.06,24.9-3.06,19,0,32.89,4.35,41.83,13.06,8.78,8.71,13.25,21.93,13.25,39.66v52.24h.3ZM70.46,129.79c5.27,0,10.7-.97,16.44-2.9,5.75-1.93,10.86-5.48,15.17-10.32,2.55-3.06,4.47-6.45,5.43-10.32.96-3.87,1.6-8.55,1.6-14.03v-6.77c-4.63-1.13-9.58-2.1-14.69-2.74-5.11-.64-10.06-.97-15.01-.97-10.7,0-18.52,2.1-23.79,6.45s-7.82,10.48-7.82,18.54c0,7.58,1.92,13.22,5.91,17.09,3.83,4.04,9.42,5.97,16.76,5.97ZM198.66,147.21c-2.87,0-4.79-.48-6.07-1.61-1.28-.97-2.39-3.22-3.35-6.29L151.72,14.68c-.96-3.22-1.44-5.32-1.44-6.45,0-2.58,1.28-4.03,3.83-4.03h15.65c3.03,0,5.11.48,6.23,1.61,1.28.97,2.23,3.22,3.19,6.29l26.82,106.74,24.9-106.74c.8-3.22,1.76-5.32,3.03-6.29,1.28-.97,3.51-1.61,6.39-1.61h12.77c3.03,0,5.11.48,6.39,1.61,1.28.97,2.39,3.22,3.03,6.29l25.22,108.03,27.62-108.03c.96-3.22,2.08-5.32,3.19-6.29,1.28-.97,3.35-1.61,6.23-1.61h14.85c2.55,0,3.99,1.29,3.99,4.03,0,.81-.16,1.61-.32,2.58s-.48,2.26-1.12,4.03l-38.47,124.63c-.96,3.22-2.08,5.32-3.35,6.29s-3.35,1.61-6.07,1.61h-13.73c-3.03,0-5.11-.48-6.39-1.61-1.28-1.13-2.39-3.22-3.03-6.45l-24.74-104-24.58,103.84c-.8,3.22-1.76,5.32-3.03,6.45-1.28,1.13-3.51,1.61-6.39,1.61h-13.73ZM403.8,151.56c-8.3,0-16.6-.97-24.58-2.9s-14.21-4.03-18.36-6.45c-2.55-1.45-4.31-3.06-4.95-4.51s-.96-3.06-.96-4.51v-8.22c0-3.39,1.28-5,3.67-5,.96,0,1.92.16,2.87.48.96.32,2.39.97,3.99,1.61,5.43,2.42,11.33,4.35,17.56,5.64,6.39,1.29,12.61,1.93,19,1.93,10.06,0,17.88-1.77,23.31-5.32,5.43-3.55,8.3-8.71,8.3-15.32,0-4.51-1.44-8.22-4.31-11.29-2.87-3.06-8.3-5.8-16.12-8.38l-23.15-7.26c-11.65-3.71-20.27-9.19-25.54-16.45-5.27-7.09-7.98-14.99-7.98-23.38,0-6.77,1.44-12.74,4.31-17.9s6.71-9.67,11.49-13.22c4.79-3.71,10.22-6.45,16.6-8.38,6.39-1.92,13.09-2.73,20.12-2.73,3.51,0,7.18.16,10.7.64,3.67.48,7.02,1.13,10.38,1.77,3.19.81,6.23,1.61,9.1,2.58s5.11,1.93,6.71,2.9c2.24,1.29,3.83,2.58,4.79,4.03.96,1.29,1.44,3.06,1.44,5.32v7.58c0,3.39-1.28,5.16-3.67,5.16-1.28,0-3.35-.64-6.07-1.93-9.1-4.19-19.32-6.29-30.65-6.29-9.1,0-16.28,1.45-21.23,4.51-4.95,3.06-7.5,7.74-7.5,14.35,0,4.51,1.6,8.38,4.79,11.45,3.19,3.06,9.1,6.13,17.56,8.87l22.67,7.26c11.49,3.71,19.8,8.87,24.74,15.48s7.34,14.19,7.34,22.57c0,6.93-1.44,13.22-4.15,18.7-2.87,5.48-6.71,10.32-11.65,14.19-4.95,4.03-10.86,6.93-17.72,9.03-7.21,2.26-14.71,3.39-22.85,3.39Z"/>
      <path class="cls-1" d="M433.97,229.92c-52.52,39.18-128.83,59.98-194.45,59.98-91.95,0-174.81-34.34-237.39-91.42-4.95-4.51-.48-10.64,5.43-7.09,67.69,39.66,151.18,63.69,237.55,63.69,58.27,0,122.29-12.25,181.19-37.41,8.79-4.03,16.29,5.8,7.67,12.25ZM455.84,204.77c-6.71-8.71-44.38-4.19-61.46-2.1-5.11.64-5.91-3.87-1.28-7.26,30.01-21.28,79.34-15.16,85.09-8.06,5.75,7.26-1.6,57.08-29.69,80.94-4.31,3.71-8.46,1.77-6.55-3.06,6.39-15.96,20.6-51.92,13.89-60.46Z"/>
    </g>
  </g>
</svg>