<?xml version="1.0" encoding="UTF-8"?>
<svg id="Layer_2" data-name="Layer 2" xmlns="http://www.w3.org/2000/svg" viewBox="0 0 235.94 49.77">
  <defs>
    <style>
      .cls-1 {
        fill: #fff;
      }
    </style>
  </defs>
  <g id="Layer_1-2" data-name="Layer 1">
    <g>
      <g>
        <g>
          <path class="cls-1" d="M53.85,33.65v-.05c.01-4.81,3.65-8.74,8.85-8.73,3.19,0,5.1,1.08,6.66,2.63l-2.37,2.73c-1.3-1.19-2.63-1.92-4.32-1.92-2.85,0-4.92,2.36-4.92,5.26v.05c0,2.9,1.99,5.32,4.9,5.33,1.93,0,3.12-.77,4.45-1.97l2.36,2.4c-1.75,1.86-3.68,3.01-6.95,3-4.98-.01-8.67-3.87-8.66-8.73Z"/>
          <path class="cls-1" d="M72.46,25.18h3.72s-.02,6.71-.02,6.71l6.87.02.02-6.7h3.72s-.04,16.94-.04,16.94h-3.72s.02-6.8.02-6.8l-6.87-.02-.02,6.79h-3.72s.04-16.94.04-16.94Z"/>
          <path class="cls-1" d="M91.29,25.23l12.77.03v3.31s-9.08-.02-9.08-.02v3.43s7.97.02,7.97.02v3.31s-7.99-.02-7.99-.02v3.55s9.18.02,9.18.02v3.31s-12.89-.03-12.89-.03l.04-16.93Z"/>
          <path class="cls-1" d="M106.71,33.78v-.05c.01-4.81,3.65-8.74,8.85-8.73,3.19,0,5.1,1.08,6.67,2.63l-2.38,2.73c-1.3-1.19-2.63-1.92-4.32-1.92-2.85,0-4.91,2.36-4.92,5.26v.05c0,2.9,1.99,5.32,4.89,5.33,1.93,0,3.12-.77,4.46-1.97l2.36,2.4c-1.75,1.86-3.68,3.01-6.95,3-4.98-.01-8.67-3.87-8.66-8.73Z"/>
          <path class="cls-1" d="M125.11,25.32h3.72s-.02,7.41-.02,7.41l6.88-7.38h4.5s-6.91,7.17-6.91,7.17l7.18,9.76h-4.47s-5.23-7.23-5.23-7.23l-1.96,2.03v5.17s-3.74,0-3.74,0l.04-16.93Z"/>
          <path class="cls-1" d="M150.55,25.38l6.91.02c4.04.01,6.47,2.41,6.47,5.87v.05c-.01,3.92-3.06,5.94-6.86,5.93h-2.83s-.01,5.07-.01,5.07h-3.72s.04-16.94.04-16.94ZM157.2,33.93c1.86,0,2.95-1.1,2.95-2.55v-.05c0-1.67-1.15-2.57-3.01-2.57h-2.88s-.01,5.17-.01,5.17h2.95Z"/>
          <path class="cls-1" d="M166.33,33.93v-.05c.01-4.81,3.82-8.74,9.04-8.73s8.96,3.92,8.95,8.73v.05c-.01,4.81-3.82,8.74-9.04,8.73-5.22-.01-8.96-3.91-8.95-8.73ZM180.43,33.97v-.05c0-2.9-2.12-5.33-5.11-5.33s-5.08,2.36-5.09,5.26v.05c0,2.9,2.11,5.32,5.11,5.33s5.09-2.36,5.09-5.26Z"/>
          <path class="cls-1" d="M187.97,25.48h3.72s-.04,16.94-.04,16.94h-3.72s.04-16.94.04-16.94Z"/>
          <path class="cls-1" d="M196.37,25.5h3.43s7.9,10.45,7.9,10.45l.03-10.42h3.67s-.04,16.94-.04,16.94h-3.16s-8.17-10.79-8.17-10.79l-.03,10.76h-3.67s.04-16.94.04-16.94Z"/>
          <path class="cls-1" d="M219.84,29h-5.15s0-3.45,0-3.45l14.02.04v3.43s-5.15-.01-5.15-.01l-.04,13.49h-3.73s.04-13.5.04-13.5Z"/>
        </g>
        <polygon class="cls-1" points="32.06 12.31 32.06 12.31 32.06 12.31 32.06 12.31"/>
        <polygon class="cls-1" points="40.46 24.5 40.46 24.5 40.46 24.5 40.46 24.5"/>
        <path class="cls-1" d="M50.83,12.5c-2.66,3.31-7.5,3.83-10.8,1.17-3.31-2.66-3.83-7.49-1.17-10.8,2.66-3.3,7.49-3.83,10.8-1.17,3.31,2.65,3.83,7.49,1.17,10.8Z"/>
        <path class="cls-1" d="M40.46,24.5c-2.13.98-4.68.96-6.86-.28l-6.04,8.02c.75.88,1.17,1.98,1.22,3.11.04,1-.22,2.03-.8,2.94-1.51,2.34-4.65,3.02-6.99,1.5-.25-.16-.47-.34-.68-.54-.07-.06-.13-.12-.19-.19-.14-.15-.27-.3-.39-.46-.05-.07-.11-.14-.16-.21-.15-.22-.28-.44-.39-.68-.03-.06-.05-.12-.08-.19-.08-.19-.15-.39-.21-.59-.02-.07-.04-.15-.06-.22-.06-.25-.1-.5-.12-.75,0-.07,0-.14,0-.21-.01-.23,0-.46.01-.69,0-.05,0-.1.01-.14.03-.27.09-.53.16-.79.02-.06.04-.12.06-.19.09-.27.19-.53.33-.79l-4.87-3.66-1.51,2.01-5.57-4.19,4.19-5.57,5.57,4.19-1.51,2.01,4.92,3.7c1.53-1.28,3.73-1.56,5.56-.62l6.02-7.99c-2.4-2.35-3.01-6.11-1.24-9.15.35-.6.77-1.12,1.24-1.59-3.27-2.23-7.23-3.55-11.49-3.56C9.24,8.72.03,17.88,0,29.2c-.03,11.33,9.13,20.53,20.46,20.56,11.33.03,20.53-9.13,20.56-20.46,0-1.66-.19-3.27-.56-4.81Z"/>
      </g>
      <g>
        <path class="cls-1" d="M232.26,27.94h-.41s0-1.96,0-1.96h-.74s0-.38,0-.38h1.9s0,.39,0,.39h-.74s0,1.96,0,1.96Z"/>
        <path class="cls-1" d="M234.79,27.37h-.01s-.73-1.1-.73-1.1v1.67s-.41,0-.41,0v-2.34s.44,0,.44,0l.71,1.11.71-1.1h.44s0,2.34,0,2.34h-.41s0-1.68,0-1.68l-.74,1.1Z"/>
      </g>
    </g>
  </g>
</svg>