<?xml version="1.0" encoding="UTF-8"?>
<svg id="Layer_2" data-name="Layer 2" xmlns="http://www.w3.org/2000/svg" viewBox="0 0 221.37 45.88">
  <defs>
    <style>
      .cls-1 {
        fill: #3dae2b;
      }

      .cls-2 {
        fill: #003b71;
      }
    </style>
  </defs>
  <g id="Layer_1-2" data-name="Layer 1">
    <g>
      <g>
        <path class="cls-2" d="M78.94,13.29l1.63,11.11h-8.65l7.02-11.11ZM77.38,7.54l-19.49,28.9h6.47l4.31-6.88h12.61l.95,6.88h6.79l-5.16-28.9h-6.47Z"/>
        <path class="cls-2" d="M153.79,12.69c3.64,0,5.25.64,4.51,3.62-.73,2.94-2.69,3.66-6.33,3.66h-7.48l1.82-7.28h7.48ZM141.49,7.54l-7.2,28.9h6.11l2.83-11.35h7.19l3.56,11.35h6.87l-4.22-12.07c3.97-.81,6.78-3.66,7.89-8.13,1.51-6.08-1.11-8.7-7.98-8.7h-15.04Z"/>
        <path class="cls-2" d="M8.42,19.29h16.9l-1.25,5.03H7.12c-1.26,5.2.33,7.09,5.15,7.09h10.03l-1.25,5.03h-10.31c-3.52,0-6.15-.28-8.43-2.53C-.09,31.52-.61,27.74.7,22.51,3.25,12.29,8.76,7.54,18.1,7.54h10.15l-1.26,5.03h-10.03c-4.41,0-7.17,2.17-8.55,6.72"/>
        <path class="cls-2" d="M111.92,19.29h14.43l-4.27,17.14h-13.13c-3.52,0-6.26-.2-8.59-2.53-2.4-2.38-2.91-6.16-1.6-11.39,2.55-10.22,8.1-14.97,17.4-14.97h13.13l-1.25,5h-13.13c-4.89,0-7.65,3.09-9.3,9.69-1.53,6.16-.29,8.98,4.64,8.98h6.87l1.7-6.8h-8.17l1.27-5.11Z"/>
        <polygon class="cls-2" points="178.84 7.54 185.23 7.54 178.03 36.43 171.64 36.43 178.84 7.54"/>
        <path class="cls-2" d="M197.29,7.54l-7.2,28.9h13.46c3.51,0,6.29-.28,9.68-2.53,3.59-2.38,5.99-6.16,7.3-11.39,2.55-10.22-.6-14.97-9.94-14.97h-13.3ZM209.21,12.57c5.42,0,6.54,2.33,4.77,9.41-1.77,7.12-4.04,9.42-9.46,9.42h-7.08l4.7-18.83h7.08Z"/>
      </g>
      <path class="cls-1" d="M57.06,40.48l-8.33-18.4,10.98-14.54h-7.68l-6.21,8.14-6.31-13.95s-1.07-2.2-4.78-1.63C30.75.71,3.84,3.21,3.84,3.21l-.15.22h29.49l8.03,18.32-11.2,14.69h7.88l6.17-8.17,6.82,15.56s1.08,2.31,4.68,2.04c5.93-.45,162.86-4.97,162.86-4.97l.33-.41H57.06Z"/>
    </g>
  </g>
</svg>