<?xml version="1.0" encoding="UTF-8"?>
<svg id="Layer_2" data-name="Layer 2" xmlns="http://www.w3.org/2000/svg" xmlns:xlink="http://www.w3.org/1999/xlink" viewBox="0 0 288 72.1">
  <defs>
    <style>
      .cls-1 {
        fill: #4a2d8c;
      }

      .cls-2 {
        fill: url(#linear-gradient);
      }

      .cls-3 {
        fill: #2f246b;
      }
    </style>
    <linearGradient id="linear-gradient" x1="28" y1="0" x2="28" y2="60" gradientUnits="userSpaceOnUse">
      <stop offset="0" stop-color="#4a2d8c"/>
      <stop offset=".39" stop-color="#422a82"/>
      <stop offset="1" stop-color="#2f246b"/>
    </linearGradient>
  </defs>
  <g id="Extreme-Networks-CMYK">
    <g id="Extreme-Networks-CMYK-2" data-name="Extreme-Networks-CMYK">
      <g id="E-Extreme_" data-name="E-Extreme®">
        <g>
          <path class="cls-1" d="M282,21.04v-.02c0-1.63,1.33-3,3.01-3s2.99,1.35,2.99,2.98v.02c0,1.63-1.33,3-3.01,3s-2.99-1.35-2.99-2.98ZM287.73,21.02v-.02c0-1.5-1.17-2.73-2.72-2.73s-2.73,1.24-2.73,2.74v.02c0,1.5,1.17,2.73,2.72,2.73s2.73-1.24,2.73-2.74ZM283.82,19.4h1.38c.39,0,.71.12.91.32.15.14.25.35.25.6v.02c0,.5-.33.8-.8.9l.95,1.23h-.56l-.89-1.16h-.79v1.16h-.46v-3.07ZM285.16,20.91c.43,0,.73-.2.73-.55v-.02c0-.32-.27-.53-.7-.53h-.9v1.09h.88Z"/>
          <g>
            <path class="cls-1" d="M88.05,16.01v11.81h19.49v3.87h-19.49v12.49h21.63v3.87h-25.76V12.15h25.76v3.87h-21.63Z"/>
            <path class="cls-1" d="M134.86,48.04l-8.1-10.76-8.15,10.76h-4.6l10.45-13.79-10.03-13.22h4.6l7.73,10.19,7.68-10.19h4.6l-9.98,13.22,10.4,13.79h-4.6Z"/>
            <path class="cls-1" d="M158.53,46.95c-1.41,1.1-3.19,1.72-5.02,1.72-3.87,0-6.58-2.87-6.58-6.9v-17.24h-4.23v-3.5h4.23v-7.42h3.92v7.42h6.64v3.5h-6.64v17.24c0,1.99,1.36,3.4,2.93,3.4,1.2,0,2.25-.47,2.82-1.1l1.93,2.87Z"/>
            <path class="cls-1" d="M177.81,20.4v3.5c-6.11,0-10.45,3.76-10.45,9.04v15.1h-3.92v-27.01h3.92v5.28c1.62-3.61,5.49-5.9,10.45-5.9Z"/>
            <path class="cls-1" d="M201.92,41.93l2.4,2.56c-2.35,2.56-7.11,4.18-10.87,4.18-7.21,0-13.69-5.9-13.69-14.21s6.06-14.06,13.32-14.06c8.15,0,12.8,6.17,12.8,15.62h-22.1c.58,5.28,4.29,9.14,9.61,9.14,3.19,0,6.85-1.41,8.52-3.24ZM183.84,32.53h18.18c-.52-4.86-3.4-8.62-8.78-8.62-4.81,0-8.67,3.4-9.41,8.62Z"/>
            <path class="cls-1" d="M250.24,30.85v17.19h-3.92v-16.67c0-4.39-2.56-7.47-6.22-7.47-4.29,0-7.32,2.87-7.32,6.95v17.19h-3.92v-16.67c0-4.39-2.56-7.47-6.22-7.47-4.29,0-7.32,2.87-7.32,6.95v17.19h-3.92v-27.01h3.92v3.97c1.36-2.82,4.29-4.6,7.84-4.6,4.28,0,7.63,2.51,8.99,6.43.84-3.81,4.18-6.43,8.47-6.43,5.64,0,9.61,4.34,9.61,10.45Z"/>
            <path class="cls-1" d="M277.92,41.93l2.4,2.56c-2.35,2.56-7.11,4.18-10.87,4.18-7.21,0-13.69-5.9-13.69-14.21s6.06-14.06,13.32-14.06c8.15,0,12.8,6.17,12.8,15.62h-22.1c.58,5.28,4.29,9.14,9.61,9.14,3.19,0,6.85-1.41,8.52-3.24ZM259.84,32.53h18.18c-.52-4.86-3.4-8.62-8.78-8.62-4.81,0-8.67,3.4-9.41,8.62Z"/>
          </g>
        </g>
        <path class="cls-2" d="M56,1v10c0,.55-.45,1-1,1H13c-.55,0-1,.45-1,1v20.52c0,1.59-.63,3.12-1.76,4.24L0,48V1C0,.45.45,0,1,0h54c.55,0,1,.45,1,1ZM24.98,36h22.17c.55,0,1-.45,1-1v-10c0-.55-.45-1-1-1h-22.17c-.55,0-1,.45-1,1v10c0,.55.45,1,1,1ZM0,48l10.24,10.24c1.13,1.13,2.65,1.76,4.24,1.76h40.51c.55,0,1-.45,1-1v-10c0-.55-.45-1-1-1H0Z"/>
      </g>
      <g id="networks">
        <path class="cls-3" d="M191.2,63.84v7.97h-1.82v-7.72c0-2.06-1.28-3.46-3.12-3.46-2.13,0-3.87,1.45-3.87,3.22v7.97h-1.82v-12.52h1.82v1.99c.73-1.33,2.32-2.28,4.12-2.28,2.79,0,4.7,1.96,4.7,4.84Z"/>
        <path class="cls-3" d="M204.08,68.98l1.11,1.19c-1.09,1.19-3.29,1.94-5.04,1.94-3.34,0-6.34-2.74-6.34-6.59s2.81-6.51,6.18-6.51c3.78,0,5.93,2.86,5.93,7.24h-10.24c.27,2.45,1.99,4.24,4.46,4.24,1.48,0,3.17-.65,3.95-1.5ZM195.7,64.62h8.43c-.24-2.25-1.57-4-4.07-4-2.23,0-4.02,1.57-4.36,4Z"/>
        <path class="cls-3" d="M214.47,71.3c-.65.51-1.48.8-2.32.8-1.79,0-3.05-1.33-3.05-3.2v-7.99h-1.96v-1.62h1.96v-3.44h1.82v3.44h3.07v1.62h-3.07v7.99c0,.92.63,1.57,1.36,1.57.56,0,1.04-.22,1.31-.51l.9,1.33Z"/>
        <path class="cls-3" d="M216.02,59.29h1.94l3.12,10.1,3.41-10.1h1.57l3.42,10.1,3.12-10.1h1.94l-4.21,12.52h-1.72l-3.32-10-3.37,10h-1.72l-4.19-12.52Z"/>
        <path class="cls-3" d="M235.56,65.54c0-3.61,2.91-6.54,6.47-6.54s6.44,2.93,6.44,6.54-2.91,6.56-6.44,6.56-6.47-2.95-6.47-6.56ZM246.58,65.54c0-2.71-2.06-4.92-4.55-4.92s-4.58,2.2-4.58,4.92,2.06,4.94,4.58,4.94,4.55-2.23,4.55-4.94Z"/>
        <path class="cls-3" d="M258.09,59v1.62c-2.83,0-4.84,1.74-4.84,4.19v7h-1.82v-12.52h1.82v2.45c.75-1.67,2.54-2.74,4.84-2.74Z"/>
        <path class="cls-3" d="M260.32,54.88h1.82v11.33l6.85-6.92h2.32l-5.64,5.74,5.33,6.78h-2.28l-4.33-5.54-2.25,2.23v3.32h-1.82v-16.93Z"/>
        <path class="cls-3" d="M272.22,70.24l.94-1.33c1.43,1.04,2.86,1.57,4.24,1.57,1.65,0,2.76-.77,2.76-1.96,0-1.36-1.45-1.79-3.15-2.28-3.03-.87-4.19-1.77-4.19-3.56,0-2.28,1.89-3.68,4.38-3.68,1.55,0,3.15.53,4.48,1.41l-.87,1.4c-1.26-.8-2.49-1.19-3.61-1.19-1.4,0-2.57.63-2.57,1.84,0,1.09.92,1.43,3.25,2.18,2.01.63,4.09,1.31,4.09,3.68s-1.99,3.78-4.58,3.78c-1.74,0-3.68-.65-5.18-1.86Z"/>
      </g>
    </g>
  </g>
</svg>