<?xml version="1.0" encoding="UTF-8"?>
<svg id="Layer_2" data-name="Layer 2" xmlns="http://www.w3.org/2000/svg" viewBox="0 0 45 45">
  <defs>
    <style>
      .cls-1 {
        fill: #fff;
      }

      .cls-2 {
        fill: #e3173e;
      }

      .cls-3 {
        fill: #ed1b34;
      }
    </style>
  </defs>
  <g id="F5_Logo" data-name="F5 Logo">
    <g id="Logo-black-and-white">
      <g>
        <path class="cls-3" d="M42.32,40.25c.29.28.43.63.43,1.03s-.14.75-.43,1.04c-.28.28-.63.43-1.03.43s-.75-.15-1.03-.43c-.28-.29-.42-.64-.42-1.04s.14-.75.42-1.03c.29-.29.63-.43,1.03-.43s.75.14,1.03.43ZM42.49,40.09c-.33-.33-.73-.49-1.21-.49s-.86.16-1.19.49c-.33.33-.5.73-.5,1.2s.16.87.49,1.2c.33.33.73.5,1.2.5s.87-.17,1.21-.5c.33-.33.5-.73.5-1.2s-.17-.87-.5-1.2ZM41.53,41.2c-.07.03-.17.04-.31.04h-.29v-.68h.28c.18,0,.31.03.39.07.08.05.12.14.12.27,0,.14-.06.24-.19.29ZM40.6,42.21h.33v-.73h.26c.17,0,.3.02.37.06.12.07.17.21.17.43v.21s0,.02.01.02c0,0,0,.01,0,.02h.3v-.02s-.03-.05-.03-.09c0-.05,0-.1,0-.14v-.14c0-.09-.03-.19-.1-.29-.07-.1-.18-.16-.32-.18.12-.02.21-.05.27-.09.12-.08.18-.21.18-.37,0-.23-.09-.39-.29-.47-.11-.04-.28-.07-.51-.07h-.65v1.86Z"/>
        <g>
          <path class="cls-1" d="M43.14,27.91c.12-2.4-.32-4.99-2.41-7.33-2.15-2.31-5.77-4.28-13.22-4.73.39-1.21.73-2.31,1.08-3.44,4.45.16,8.42.48,11.79.92.27-1.21.41-2.39.69-3.53-.34-.5-.71-.99-1.09-1.46-1.6-.19-3.2-.59-4.93-.81-2.33-.3-4.76-.52-7.4-.64-1.66,4.94-3.73,11.15-5.86,17.57,11.08.96,15.34,3.94,15.1,8.16-.22,2.28-2.3,4.34-5.04,4.59-3.25.22-4.74-1.1-5.72-2.54-.86-1.3-1.72-2.59-2.64-4.01-.25-.42-.58-.15-.87.14-.67.65-1.31,1.27-1.97,1.9-.43.37-.33.69-.18,1,.62,1.46,1.2,2.8,1.78,4.13.97.59,5.53,1.41,8.94,1.15,2.31-.19,5.2-1.09,7.59-2.89,2.36-1.83,4.08-4.29,4.35-8.19Z"/>
          <path class="cls-1" d="M4.38,35.83c.43.58.88,1.14,1.36,1.67,3.83.69,8.61,1.17,13.59,1.31-.02-.52-.03-1.02-.04-1.55-3.06-.17-4.46-.64-4.71-1.24-.2-.48-.24-1.2-.28-1.91-.23-4.7-.3-9.78-.23-14.87,1.71-.03,3.41-.04,5.2-.06.87-.39,1.68-.78,2.54-1.17,0-.62,0-1.17,0-1.77-2.65.01-5.16.05-7.68.13.07-2.14.16-4.12.28-6.05.09-1.27.97-2.19,1.87-2.27,1.45-.06,2.76.52,4.02,1.08.7.34,1.38.67,2.09,1.04.34.09.74.17.99-.13.42-.5.82-.97,1.24-1.45.22-.33.13-.52.04-.65-.91-.72-1.76-1.36-2.62-2-.53-.36-1.37-.44-2.2-.44-.33,0-.66.01-.97.02-.85.04-1.94.18-3.71.61-4,1.08-8.79,3.86-9.3,8.42-.07.74-.12,1.48-.17,2.24-1.13.09-2.16.18-3.13.27-.07.87-.12,1.71-.16,2.59.98-.06,2.01-.11,3.15-.16-.17,4.78,0,9.54.44,13.96.08.67.15,1.34.06,1.77-.07.41-.73.62-1.69.62Z"/>
          <path class="cls-3" d="M41.07,9.8c-.28,1.14-.42,2.32-.69,3.53-3.37-.44-7.34-.76-11.79-.92-.36,1.13-.7,2.24-1.08,3.44,7.45.46,11.07,2.42,13.22,4.73,2.09,2.34,2.53,4.93,2.41,7.33-.27,3.9-1.99,6.37-4.35,8.19-2.39,1.8-5.28,2.69-7.59,2.89-3.41.26-7.97-.56-8.94-1.15-.58-1.33-1.16-2.67-1.78-4.13-.15-.31-.25-.63.18-1,.66-.64,1.3-1.25,1.97-1.9.3-.29.63-.56.87-.14.92,1.41,1.78,2.71,2.64,4.01.98,1.44,2.47,2.76,5.72,2.54,2.74-.24,4.82-2.31,5.04-4.59.24-4.21-4.02-7.2-15.1-8.16,2.13-6.42,4.2-12.63,5.86-17.57,2.63.12,5.07.34,7.4.64,1.72.22,3.32.62,4.93.81C35.85,3.25,29.56,0,22.5,0,10.07,0,0,10.07,0,22.5c0,4.99,1.63,9.6,4.38,13.33.95,0,1.61-.21,1.69-.62.09-.43.01-1.09-.06-1.77-.45-4.42-.61-9.18-.44-13.96-1.14.05-2.17.1-3.15.16.04-.88.09-1.72.16-2.59.97-.09,2-.17,3.13-.27.05-.76.1-1.5.17-2.24.51-4.56,5.3-7.34,9.3-8.42,1.77-.43,2.86-.57,3.71-.61.31,0,.64-.02.97-.02.83,0,1.67.08,2.2.44.86.65,1.71,1.29,2.62,2,.09.12.19.31-.04.65-.42.49-.82.95-1.24,1.45-.24.3-.65.22-.99.13-.71-.37-1.4-.7-2.09-1.04-1.26-.56-2.57-1.14-4.02-1.08-.91.07-1.78,1-1.87,2.27-.13,1.93-.21,3.91-.28,6.05,2.52-.07,5.03-.11,7.68-.13,0,.6,0,1.16,0,1.77-.86.39-1.68.78-2.54,1.17-1.79.02-3.49.03-5.2.06-.08,5.1,0,10.18.23,14.87.04.71.08,1.43.28,1.91.24.6,1.65,1.07,4.71,1.24.01.53.03,1.03.04,1.55-4.98-.15-9.76-.62-13.59-1.31,4.12,4.6,10.1,7.5,16.76,7.5,12.43,0,22.5-10.07,22.5-22.5,0-4.71-1.45-9.09-3.93-12.7Z"/>
        </g>
        <polygon class="cls-2" points="5.74 37.5 5.74 37.5 5.74 37.5 5.74 37.5"/>
      </g>
    </g>
  </g>
</svg>