<?xml version="1.0" encoding="UTF-8"?>
<svg xmlns="http://www.w3.org/2000/svg" viewBox="0 0 45 45">
  <path fill="#fff" d="M43.14,27.91c.12-2.4-.32-4.99-2.41-7.33-2.15-2.31-5.77-4.28-13.22-4.73.39-1.21.73-2.31,1.08-3.44,4.45.16,8.42.48,11.79.92.27-1.21.41-2.39.69-3.53-.34-.5-.71-.99-1.09-1.46-1.6-.19-3.2-.59-4.93-.81-2.33-.3-4.76-.52-7.4-.64-1.66,4.94-3.73,11.15-5.86,17.57,11.08.96,15.34,3.94,15.1,8.16-.22,2.28-2.3,4.34-5.04,4.59-3.25.22-4.74-1.1-5.72-2.54-.86-1.3-1.72-2.59-2.64-4.01-.25-.42-.58-.15-.87.14-.67.65-1.31,1.27-1.97,1.9-.43.37-.33.69-.18,1,.62,1.46,1.2,2.8,1.78,4.13.97.59,5.53,1.41,8.94,1.15,2.31-.19,5.2-1.09,7.59-2.89,2.36-1.83,4.08-4.29,4.35-8.19Z"/>
  <path fill="#fff" d="M4.38,35.83c.43.58.88,1.14,1.36,1.67,3.83.69,8.61,1.17,13.59,1.31-.02-.52-.03-1.02-.04-1.55-3.06-.17-4.46-.64-4.71-1.24-.2-.48-.24-1.2-.28-1.91-.23-4.7-.3-9.78-.23-14.87,1.71-.03,3.41-.04,5.2-.06.87-.39,1.68-.78,2.54-1.17,0-.62,0-1.17,0-1.77-2.65.01-5.16.05-7.68.13.07-2.14.16-4.12.28-6.05.09-1.27.97-2.19,1.87-2.27,1.45-.06,2.76.52,4.02,1.08.7.34,1.38.67,2.09,1.04.34.09.74.17.99-.13.42-.5.82-.97,1.24-1.45.22-.33.13-.52.04-.65-.91-.72-1.76-1.36-2.62-2-.53-.36-1.37-.44-2.2-.44-.33,0-.66.01-.97.02-.85.04-1.94.18-3.71.61-4,1.08-8.79,3.86-9.3,8.42-.07.74-.12,1.48-.17,2.24-1.13.09-2.16.18-3.13.27-.07.87-.12,1.71-.16,2.59.98-.06,2.01-.11,3.15-.16-.17,4.78,0,9.54.44,13.96.08.67.15,1.34.06,1.77-.07.41-.73.62-1.69.62Z"/>
</svg>