<?xml version="1.0" encoding="UTF-8"?>
<svg id="Layer_2" data-name="Layer 2" xmlns="http://www.w3.org/2000/svg" viewBox="0 0 310.58 59.49">
  <defs>
    <style>
      .cls-1 {
        fill: #ff6b00;
      }
    </style>
  </defs>
  <g id="Layer_1-2" data-name="Layer 1">
    <g>
      <g>
        <path class="cls-1" d="M34.81,29.68h-10.38v-8.67h22.02v23.46c-5.91,2.05-12.62,3.14-20.08,3.14C8.83,47.61,0,39.71,0,24.09S8.95,0,25.18,0c13.65,0,20.7,5.08,21.27,15.35h-12.62c-.17-4.24-3.49-6.87-9-6.87-8.14,0-12.68,5.34-12.68,14.91,0,10.15,4.65,15.29,13.88,15.29,2.76,0,5.68-.45,8.78-1.35v-7.65Z"/>
        <path class="cls-1" d="M52.53.57h11.87v9.07h-11.87V.57ZM52.98,14.58h11.02v32.25h-11.02V14.58Z"/>
        <path class="cls-1" d="M96.92,14.58h10.77c-.29,2.5-.4,4.95-.4,7.32v16.45c0,6.22-.23,10.73-2.64,14.33-3.22,4.68-8.95,6.8-17.6,6.8-10.78,0-16.23-3.73-16.34-11.36h10.89c.12,2.89,2.06,4.36,5.79,4.36,6.08,0,8.89-3.08,8.89-9.63v-2.7c-2.87,3.65-7,5.45-12.27,5.45-9.06,0-14.85-6.62-14.85-15.67,0-9.96,5.73-16.11,15.36-16.11,4.53,0,8.54,1.85,12.04,5.58,0-1.86.11-3.46.35-4.81ZM88.31,38.48c5.28,0,8.08-3.14,8.08-8.92s-2.92-8.74-7.97-8.74-7.97,3.34-7.97,9.18c0,5.08,3.03,8.48,7.86,8.48Z"/>
        <path class="cls-1" d="M122.83,47.61c-7.4,0-11.4-3.66-11.4-9.76,0-3.93,1.54-7.07,4.47-9.07,2.86-1.99,7.73-2.24,14.73-2.24h5.34c0-.32.05-.65.05-.89,0-3.53-1.89-5.41-5.39-5.41-3.84,0-5.79,1.03-6.19,3.92h-11.18c.74-7.19,6.42-10.34,17.55-10.34s15.82,3.78,15.82,12.33v16.45c0,1.54.12,2.89.58,4.24h-10.26c-.46-1.16-.69-2.5-.69-4.17v-.58c-2.29,3.47-6.88,5.53-13.42,5.53ZM135.1,32.44c-8.37,0-12.21.96-12.21,4.56,0,2.38,1.84,3.6,5.52,3.6,4.87,0,7.56-2.63,7.56-7.46v-.7h-.87Z"/>
        <path class="cls-1" d="M151.9,22.17c0-2.57-.05-5.08-.33-7.58h10.84c.22,1.74.4,3.47.51,5.2,3.21-3.98,7.22-5.97,11.93-5.97,5.33,0,8.83,2.3,10.32,6.67,2.75-4.43,6.77-6.67,11.76-6.67,8.08,0,12.62,4.74,12.62,13.68v19.34h-10.95v-19.66c0-3.93-2.07-6.11-5.57-6.11-4.76,0-6.94,3.09-6.94,9.38v16.39h-10.84v-19.66c0-3.85-2.06-6.11-5.45-6.11-4.87,0-7.05,3.09-7.05,9.38v16.39h-10.84v-24.67Z"/>
        <path class="cls-1" d="M213.84,30.65c0-10.79,6.71-16.9,19.5-16.9s19.56,6.11,19.56,17.03-6.72,16.83-20.02,16.83c-12.5,0-19.04-6.1-19.04-16.96ZM241.36,30.39c0-6.3-3.09-10.15-7.95-10.15s-7.97,3.6-7.97,10.09,2.81,10.08,8.02,10.08c4.87,0,7.91-3.79,7.91-10.01Z"/>
        <path class="cls-1" d="M256.51,22.17c0-2.57-.06-5.08-.36-7.58h11.07c.17,1.53.29,3.27.29,5.14,3.2-3.79,6.99-5.9,12.38-5.9,7.81,0,12.5,4.88,12.5,13.3v19.72h-11.07v-19.14c0-4.37-2.12-6.63-6.07-6.63-5.29,0-7.74,3.09-7.74,9.38v16.39h-11v-24.67Z"/>
      </g>
      <path class="cls-1" d="M302.55,0c1.35,0,2.67.38,3.96,1.16,1.28.78,2.28,1.88,3,3.33.72,1.44,1.07,2.95,1.07,4.52s-.35,3.04-1.06,4.48c-.71,1.43-1.7,2.55-2.98,3.34-1.28.79-2.61,1.19-4,1.19s-2.73-.39-4-1.19c-1.27-.79-2.27-1.9-2.98-3.34-.71-1.43-1.07-2.92-1.07-4.48s.36-3.08,1.08-4.52c.72-1.45,1.73-2.55,3.01-3.33,1.28-.78,2.6-1.16,3.95-1.16ZM302.55,1.49c-1.13,0-2.23.32-3.3.97-1.07.65-1.9,1.57-2.5,2.78-.61,1.21-.91,2.46-.91,3.77s.3,2.54.89,3.73c.6,1.19,1.42,2.12,2.49,2.78,1.07.67,2.17,1,3.33,1s2.27-.33,3.34-1c1.06-.66,1.89-1.59,2.48-2.78.59-1.19.88-2.43.88-3.73s-.3-2.56-.9-3.77c-.6-1.2-1.44-2.13-2.5-2.78-1.08-.65-2.18-.97-3.3-.97ZM299.01,13.99V4.3h2.98c1.01,0,1.75.09,2.2.27.46.18.82.49,1.09.94.27.44.42.92.42,1.42,0,.71-.24,1.33-.68,1.85-.45.53-1.05.82-1.8.88.3.14.55.32.74.51.34.38.77,1.02,1.28,1.92l1.06,1.9h-1.7l-.77-1.53c-.61-1.2-1.09-1.95-1.46-2.25-.25-.22-.63-.33-1.12-.33h-.82v4.11h-1.4ZM300.42,8.53h1.7c.8,0,1.35-.14,1.65-.41.3-.27.44-.63.44-1.08,0-.28-.07-.54-.21-.77-.14-.23-.35-.4-.6-.51-.25-.12-.72-.17-1.4-.17h-1.59v2.92Z"/>
    </g>
  </g>
</svg>