<?xml version="1.0" encoding="UTF-8"?>
<svg id="Layer_1" data-name="Layer 1" xmlns="http://www.w3.org/2000/svg" viewBox="0 0 318 123">
  <defs>
    <style>
      .cls-1 {
        fill: #ff6b00;
      }
    </style>
  </defs>
  <path class="cls-1" d="M-152.56,150.77c-46.95,0-72.37-20.72-72.37-55.3,0-22.24,9.76-40.06,28.37-51.38,18.15-11.27,49.09-12.71,93.49-12.71h33.88c0-1.83.35-3.66.35-5.07,0-20.02-11.99-30.63-34.23-30.63-24.39,0-36.72,5.81-39.3,22.21h-70.96c4.73-40.73,40.76-58.56,111.38-58.56S-1.52-19.23-1.52,29.17v93.21c0,8.74.75,16.4,3.67,24.01H-63c-2.89-6.58-4.38-14.18-4.38-23.64v-3.3c-14.54,19.68-43.65,31.31-85.18,31.31ZM-74.68,64.86c-53.12,0-77.51,5.42-77.51,25.85,0,13.48,11.66,20.39,35.01,20.39,30.88,0,47.99-14.9,47.99-42.26v-3.98h-5.49Z"/>
  <path class="cls-1" d="M31.97,6.62c0-14.54-.34-28.78-2.12-42.96h68.78c1.4,9.85,2.55,19.66,3.27,29.48,20.38-22.57,45.82-33.8,75.73-33.8,33.84,0,56.04,13.01,65.49,37.81,17.46-25.13,42.96-37.81,74.62-37.81,51.29,0,80.12,26.88,80.12,77.5v109.57h-69.53V35.02c0-22.24-13.14-34.62-35.35-34.62-30.2,0-44.06,17.5-44.06,53.14v92.87h-68.78V35.02C180.15,13.17,167.04.4,145.54.4c-30.94,0-44.74,17.5-44.74,53.14v92.87H31.97V6.62Z"/>
</svg>