<svg width="131" height="31" viewBox="0 0 131 31" fill="none" xmlns="http://www.w3.org/2000/svg">
<g clip-path="url(#clip0_3081_214)">
<path fill-rule="evenodd" clip-rule="evenodd" d="M36.3176 21.9432V23.486H44.136V21.9432H43.9526C42.7006 21.9432 42.3952 21.4804 42.3952 20.1225V12.3158C42.9753 11.6678 43.9833 11.2666 44.9299 11.2666C46.3348 11.2666 47.2815 11.9763 47.2815 13.8895V20.1225C47.2815 21.4185 47.0678 21.9432 45.7546 21.9432H45.6019V23.486H53.2064V21.9432H53.0537C51.5878 21.9432 51.2518 21.3877 51.2518 19.9066V12.7786C51.2518 9.97063 49.7552 8.2735 47.0373 8.2735C44.9606 8.2735 43.3419 9.32265 42.5479 10.8346H42.3952V4.29294C42.3952 3.12038 42.3952 1.91696 42.4257 0.898682H41.143C39.7993 1.29982 37.1117 2.04039 35.6458 2.28725V3.6758H36.5925C37.7835 3.6758 38.4249 4.10781 38.4249 5.55809V20.1225C38.4249 21.3261 37.9972 21.9122 36.4703 21.9432H36.3176ZM67.3665 19.1915V5.55811C67.3665 4.10784 66.7251 3.67583 65.5341 3.67583H64.5873V2.28727C66.0533 2.04042 68.7409 1.29985 70.0846 0.898706H71.3673C71.3368 1.91699 71.3368 3.12041 71.3368 4.29297V20.1225C71.3368 21.3569 71.7949 21.9433 73.3218 21.9433H73.4745V23.486H65.5125C65.0584 23.7541 64.5542 23.918 64.0071 23.918C62.6024 23.918 61.3197 22.9923 61.2585 21.1099V21.0483H61.1057C60.5256 22.6529 59.2124 23.8254 57.3189 23.8254C55.1199 23.8254 53.318 22.2208 53.318 20.1225C53.318 17.4689 55.4558 16.3889 58.3571 15.6175L60.9225 14.9386V12.47C60.9225 10.8963 60.098 9.90891 58.7238 9.90891C57.3494 9.90891 56.647 10.6495 56.647 11.5752C56.647 11.8236 56.6949 12.0236 56.7454 12.2341C56.8015 12.4682 56.8607 12.7152 56.8607 13.0563C56.8607 13.9512 56.0972 14.6609 55.1199 14.6609C54.0204 14.6609 53.1653 13.8277 53.1653 12.5317C53.1653 10.2792 55.3336 8.1809 59.0902 8.1809C62.3884 8.1809 64.7706 9.60034 64.7706 13.0563V13.1797L64.6791 19.9374C64.6791 20.8631 65.2086 21.1717 65.85 21.1717C66.458 21.1717 67.3582 21.0189 67.3665 19.1915ZM60.9225 16.4506V19.5672C60.5256 20.2151 59.823 20.8015 58.8458 20.8015C57.8075 20.8015 57.0134 20.0917 57.0134 19.0734C57.0134 17.8391 57.9907 17.2837 59.6093 16.8209L60.9225 16.4506ZM79.1966 23.9489C82.7393 23.9489 84.8161 21.0174 85.0908 17.6232H83.8081C83.4722 18.9192 82.2202 20.0917 80.3876 20.0917C77.7002 20.0917 75.9289 17.8083 75.9289 14.6917C75.9289 11.9763 77.4253 10.31 79.3493 10.31C80.3571 10.31 80.8458 10.8346 81.0595 11.4209C81.1659 11.7004 81.1981 11.9948 81.2286 12.2729C81.2419 12.394 81.2548 12.512 81.2734 12.6243C81.4261 13.4883 82.0675 14.1672 83.0142 14.1672C84.2969 14.1672 85.0298 13.2723 85.0298 12.0997C85.0298 11.4212 84.8248 10.7821 84.449 10.2248C85.4909 10.4081 85.8797 11.2342 86.3632 12.3466L91.1581 23.2392L90.8526 24.0105C90.2723 25.4916 89.3865 26.2015 88.104 26.2015C87.7941 26.2015 87.5198 26.1582 87.2363 26.1135C86.9333 26.0658 86.6197 26.0164 86.241 26.0164C84.9888 26.0164 84.0725 26.6644 84.0725 27.8369C84.0725 29.1021 85.111 29.9968 87.035 29.9968C89.8142 29.9968 91.4023 28.423 92.7155 25.0598L97.6631 12.3775C98.1822 11.0198 98.6708 10.2175 99.9535 10.1866V8.58208H94.2426V10.1866H94.6395C95.4641 10.1866 95.8612 10.4952 95.8612 11.1124C95.8612 11.4209 95.7695 11.8221 95.5863 12.2849L93.1431 18.8883L90.5777 12.4392C90.3945 12.0072 90.3028 11.6061 90.3028 11.2975C90.3028 10.5878 90.7304 10.1866 91.616 10.1866H91.9826V8.58208H83.3155H82.2574C81.5687 8.32527 80.774 8.1809 79.899 8.1809C75.8982 8.1809 72.5387 11.3283 72.5387 16.358C72.5387 20.4619 75.1958 23.9489 79.1966 23.9489ZM106.326 23.9489C110.357 23.9489 113.961 20.7398 113.961 16.0495C113.961 11.3593 110.357 8.15014 106.326 8.15014C102.233 8.15014 98.66 11.3593 98.66 16.0495C98.66 20.7398 102.233 23.9489 106.326 23.9489ZM106.326 21.789C104.188 21.789 103.119 19.5672 103.119 16.0495C103.119 12.6244 104.127 10.341 106.326 10.341C108.433 10.341 109.532 12.5318 109.532 16.0495C109.532 19.4747 108.494 21.789 106.326 21.789ZM113.772 23.4861V21.9433H113.833C115.421 21.9433 115.879 21.3878 115.879 20.1226V12.7478C115.879 11.421 115.268 10.989 114.047 10.989H113.497V9.63129C114.551 9.41342 116.32 8.94864 117.667 8.59456C118.037 8.49732 118.375 8.40843 118.658 8.33529H119.85V10.8347H120.002C120.796 9.32272 122.415 8.27358 124.461 8.27358C127.21 8.27358 128.706 9.9707 128.706 12.7787V19.9067C128.706 21.3878 129.073 21.9433 130.539 21.9433H130.823V23.4861H123.087V21.9433H123.24C124.522 21.9433 124.736 21.4186 124.736 20.1226V13.9204C124.736 11.9456 123.759 11.2667 122.384 11.2667C121.438 11.2667 120.43 11.6987 119.85 12.3159V20.1226C119.85 21.4804 120.155 21.9433 121.407 21.9433H121.59V23.4861H113.772Z" fill="#212324"/>
<path fill-rule="evenodd" clip-rule="evenodd" d="M25.3484 13.0185C25.7553 12.8135 26.1641 12.6517 26.5744 12.5332C26.1213 5.58198 20.3856 0.0852051 13.3762 0.0852051C6.36371 0.0852051 0.625795 5.58692 0.177368 12.5426C0.576771 12.6602 0.974976 12.8188 1.37115 13.0185C2.75575 13.7165 4.0923 13.7165 5.47689 13.0185C7.40422 12.047 9.37961 12.047 11.3069 13.0185C12.6915 13.7165 14.0281 13.7165 15.4127 13.0185C17.34 12.047 19.3154 12.047 21.2428 13.0185C22.6273 13.7165 23.9638 13.7165 25.3484 13.0185ZM26.2108 14.757C26.325 14.6994 26.4388 14.6466 26.5524 14.5985C26.4747 15.4918 26.3099 16.3599 26.0663 17.194C25.8264 17.2845 25.5872 17.3898 25.3485 17.5101C23.9639 18.2081 22.6274 18.2081 21.2429 17.5101C19.3155 16.5385 17.3401 16.5385 15.4128 17.5101C14.0282 18.2081 12.6916 18.2081 11.307 17.5101C9.3797 16.5385 7.4043 16.5385 5.47697 17.5101C4.09238 18.2081 2.75583 18.2081 1.37124 17.5101C1.14487 17.396 0.91784 17.2953 0.690302 17.208C0.445766 16.3741 0.279911 15.5062 0.201402 14.613C0.303727 14.6572 0.406276 14.7051 0.509091 14.757C2.43643 15.7285 4.41181 15.7285 6.33914 14.757C7.72373 14.059 9.06028 14.059 10.4449 14.757C12.3722 15.7285 14.3476 15.7285 16.2749 14.757C17.6595 14.059 18.9961 14.059 20.3808 14.757C22.3079 15.7285 24.2834 15.7285 26.2108 14.757ZM1.72026 19.7296C2.26165 20.7441 2.92956 21.6799 3.70267 22.5154C4.29031 22.4743 4.87918 22.303 5.477 22.0016C7.40433 21.0301 9.37973 21.0301 11.3071 22.0016C12.6917 22.6995 14.0282 22.6995 15.4128 22.0016C17.3401 21.0301 19.3155 21.0301 21.2429 22.0016C21.8512 22.3084 22.4501 22.4802 23.0481 22.5174C23.8249 21.6783 24.4956 20.738 25.0384 19.7181C23.4878 20.1804 21.9188 20.024 20.3808 19.2485C18.9961 18.5506 17.6595 18.5506 16.2749 19.2485C14.3476 20.2201 12.3722 20.2201 10.4449 19.2485C9.06031 18.5506 7.72376 18.5506 6.33917 19.2485C4.81375 20.0175 3.25823 20.1779 1.72026 19.7296ZM5.46879 24.1117C7.67449 25.7726 10.4114 26.7561 13.3761 26.7561C16.3362 26.7561 19.0692 25.7756 21.273 24.1194C20.9746 24.0161 20.677 23.8895 20.3806 23.7401C18.9959 23.0421 17.6594 23.0421 16.2748 23.7401C14.3474 24.7117 12.3721 24.7117 10.4447 23.7401C9.06013 23.0421 7.72359 23.0421 6.339 23.7401C6.0499 23.8859 5.75973 24.0098 5.46879 24.1117Z" fill="url(#paint0_linear_3081_214)"/>
</g>
<defs>
<linearGradient id="paint0_linear_3081_214" x1="13.3759" y1="0.0852051" x2="13.3759" y2="26.7561" gradientUnits="userSpaceOnUse">
<stop stop-color="#FFAC2F"/>
<stop offset="0.578245" stop-color="#FF8400"/>
<stop offset="1" stop-color="#F44544"/>
</linearGradient>
<clipPath id="clip0_3081_214">
<rect width="130.645" height="30" fill="white" transform="translate(0.177368 0.0852051)"/>
</clipPath>
</defs>
</svg>
