<?xml version="1.0" encoding="utf-8"?>
<!-- Generator: Adobe Illustrator 19.2.1, SVG Export Plug-In . SVG Version: 6.00 Build 0)  -->
<svg version="1.1" id="layer" xmlns="http://www.w3.org/2000/svg" xmlns:xlink="http://www.w3.org/1999/xlink" x="0px" y="0px"
	 viewBox="0 0 652 652" style="enable-background:new 0 0 652 652;" xml:space="preserve">
<style type="text/css">
	.st0{fill:#0099DA;}
</style>
<path id="logo_new_copy_2" class="st0" d="M295.6,348.4H309V279l-13.4,12.6V348.4z M266,348.4h13.4v-49.1H266
	C266,299.3,266,348.4,266,348.4z M266,291.5h13.4v-12.2H266L266,291.5L266,291.5z M235.9,297.8c-7.1-0.3-13.9,3.4-17.5,9.5
	c-1.9-6.1-7.8-10.1-14.2-9.5c-7,0-13.5,3.7-17.1,9.7H187c0-2.5,0-8.4,0-8.4H175v49.3h13v-25c0-9.1,5-15.6,11-15.6
	c5.3,0,8.5,4.6,8.5,10.7v29.8H220v-24.5c0-9.9,4.6-16.1,10.8-16.1c5.5,0,8.7,4.6,8.7,13.1v27.4h13.1v-28.8
	C252.7,307.5,248.3,297.8,235.9,297.8L235.9,297.8z M482.5,297.8c-16.1,0-27.1,10.1-27.1,25.9c0.2,14.7,12.4,26.5,27.1,26.3
	c14.4-0.2,26-11.8,26.3-26.2c0.6-13.8-10.1-25.4-23.9-26C484.1,297.8,483.3,297.8,482.5,297.8L482.5,297.8z M482,340.5
	c-7.9,0-12.7-7.1-12.7-16.7c0-10.5,5-16.9,12.8-16.9c7.9,0,13,6.3,13,16.4C495.1,333.5,490.2,340.5,482,340.5z M546,297.8
	c-6.6-0.3-12.9,3.1-16.2,8.8h-0.2V299l-13-0.1v49.4h12.8v-22.2c-0.2-3.9,0.5-7.8,2.1-11.4c2.1-4,6.1-6.5,10.6-6.7
	c8.6,0,9.4,7.3,9.4,16.7v23.6h12.8v-28.6C564.3,306.6,559.3,297.8,546,297.8z M444.8,339c-6.3,0-8.1-3.7-8.1-11.1v-18.8h12.7v-10
	h-12.7v-19.9l-12.3,11.6v8.2h-9.8v10h9.6v21.4c0,13,5.2,18.8,16.7,18.8c3.1,0.1,6.3-0.3,9.3-1.2l-0.3-9.8
	C448.2,338.7,446.5,339,444.8,339z M620.4,324.4c0-17.7-7.8-26.6-22.3-26.6c-13.6-0.4-25,10.3-25.4,23.9c0,0.6,0,1.3,0,1.9
	c0,16.5,11.1,26.3,27.6,26.3c5.7,0.1,11.4-1,16.7-3.2l-0.2-10.5c-4.5,2.7-9.7,4.1-14.9,4c-9,0-15.6-5.6-15.8-13.1h34.2
	C620.3,326.2,620.4,325.3,620.4,324.4z M585.8,319c0.8-8.7,6.1-12.1,11.8-12.1c6.4,0,10.8,3.3,10.8,12.1H585.8z M366.4,324.4
	c0-17.7-7.8-26.6-22.3-26.6c-13.6-0.4-25,10.3-25.4,23.9c0,0.6,0,1.3,0,1.9c0,16.5,11.1,26.3,27.6,26.3c5.7,0.1,11.4-1,16.7-3.2
	l-0.2-10.5c-4.5,2.7-9.7,4.1-14.9,4c-9,0-15.6-5.6-15.8-13.1h34.2C366.4,326.2,366.4,325.3,366.4,324.4L366.4,324.4z M331.8,319
	c0.8-8.7,6.1-12.1,11.8-12.1c6.4,0,10.8,3.3,10.8,12.1H331.8L331.8,319z M396,319.3c-7.1-2.3-9.5-3.8-9.5-7.1s3.6-5.5,7.9-5.5
	c4,0,8,0.9,11.6,2.6v-9.9c-3.9-1.3-8.1-1.9-12.2-1.8c-12,0-20.2,6.1-20.2,15.4c0,7.2,4.5,10.6,14,13.8c8,2.8,9.8,4.4,9.8,7.9
	c0,3.5-4.1,5.6-8.5,5.6c-4.8-0.1-9.5-1.1-13.9-3.2v10.3c4.7,1.5,9.6,2.3,14.5,2.2c12.1,0,20.9-5.9,20.9-16
	C410.6,325.3,404.9,322.2,396,319.3L396,319.3z M81.6,381.7l-61.2-60l61.2-60l61.2,60L81.6,381.7z"/>
</svg>
