<?xml version="1.0" encoding="UTF-8"?>
<svg id="Layer_2" data-name="Layer 2" xmlns="http://www.w3.org/2000/svg" viewBox="0 0 600 120">
  <defs>
    <style>
      .cls-1 {
        fill: #0099da;
      }
    </style>
  </defs>
  <g id="layer">
    <path id="logo_new_copy_2" data-name="logo new copy 2" class="cls-1" d="M275.2,86.7h13.4V17.3l-13.4,12.6v56.8ZM245.6,86.7h13.4v-49.1h-13.4v49.1ZM245.6,29.8h13.4v-12.2h-13.4v12.2h0ZM215.5,36.1c-7.1-.3-13.9,3.4-17.5,9.5-1.9-6.1-7.8-10.1-14.2-9.5-7,0-13.5,3.7-17.1,9.7h-.1v-8.4h-12v49.3h13v-25c0-9.1,5-15.6,11-15.6,5.3,0,8.5,4.6,8.5,10.7v29.8h12.5v-24.5c0-9.9,4.6-16.1,10.8-16.1,5.5,0,8.7,4.6,8.7,13.1v27.4h13.1v-28.8c.1-11.9-4.3-21.6-16.7-21.6h0ZM462.1,36.1c-16.1,0-27.1,10.1-27.1,25.9.2,14.7,12.4,26.5,27.1,26.3,14.4-.2,26-11.8,26.3-26.2.6-13.8-10.1-25.4-23.9-26-.8,0-1.6,0-2.4,0h0ZM461.6,78.8c-7.9,0-12.7-7.1-12.7-16.7,0-10.5,5-16.9,12.8-16.9s13,6.3,13,16.4c0,10.2-4.9,17.2-13.1,17.2ZM525.6,36.1c-6.6-.3-12.9,3.1-16.2,8.8h-.2v-7.6l-13-.1v49.4h12.8v-22.2c-.2-3.9.5-7.8,2.1-11.4,2.1-4,6.1-6.5,10.6-6.7,8.6,0,9.4,7.3,9.4,16.7v23.6h12.8v-28.6c0-13.1-5-21.9-18.3-21.9ZM424.4,77.3c-6.3,0-8.1-3.7-8.1-11.1v-18.8h12.7v-10h-12.7v-19.9l-12.3,11.6v8.2h-9.8v10h9.6v21.4c0,13,5.2,18.8,16.7,18.8,3.1.1,6.3-.3,9.3-1.2l-.3-9.8c-1.7.5-3.4.8-5.1.8ZM600,62.7c0-17.7-7.8-26.6-22.3-26.6-13.6-.4-25,10.3-25.4,23.9v1.9c0,16.5,11.1,26.3,27.6,26.3,5.7.1,11.4-1,16.7-3.2l-.2-10.5c-4.5,2.7-9.7,4.1-14.9,4-9,0-15.6-5.6-15.8-13.1h34.2c0-.9.1-1.8.1-2.7ZM565.4,57.3c.8-8.7,6.1-12.1,11.8-12.1,6.4,0,10.8,3.3,10.8,12.1h-22.6ZM346,62.7c0-17.7-7.8-26.6-22.3-26.6-13.6-.4-25,10.3-25.4,23.9v1.9c0,16.5,11.1,26.3,27.6,26.3,5.7.1,11.4-1,16.7-3.2l-.2-10.5c-4.5,2.7-9.7,4.1-14.9,4-9,0-15.6-5.6-15.8-13.1h34.2c.1-.9.1-1.8.1-2.7h0ZM311.4,57.3c.8-8.7,6.1-12.1,11.8-12.1,6.4,0,10.8,3.3,10.8,12.1h-22.6ZM375.6,57.6c-7.1-2.3-9.5-3.8-9.5-7.1s3.6-5.5,7.9-5.5c4,0,8,.9,11.6,2.6v-9.9c-3.9-1.3-8.1-1.9-12.2-1.8-12,0-20.2,6.1-20.2,15.4,0,7.2,4.5,10.6,14,13.8,8,2.8,9.8,4.4,9.8,7.9s-4.1,5.6-8.5,5.6c-4.8-.1-9.5-1.1-13.9-3.2v10.3c4.7,1.5,9.6,2.3,14.5,2.2,12.1,0,20.9-5.9,20.9-16,.2-8.3-5.5-11.4-14.4-14.3h0ZM61.2,120L0,60,61.2,0l61.2,60-61.2,60Z"/>
  </g>
</svg>