<?xml version="1.0" encoding="UTF-8"?>
<svg id="Layer_2" data-name="Layer 2" xmlns="http://www.w3.org/2000/svg" viewBox="0 0 345.11 63.1">
  <g id="Layer_1-2" data-name="Layer 1">
    <g>
      <g>
        <path d="M304.04,12.33h11.09v5.62c2.7-3.65,6.42-6.34,12.18-6.34,9.12,0,17.8,7.15,17.8,20.21v.14c0,13.06-8.53,20.21-17.8,20.21-5.91,0-9.56-2.7-12.18-5.84v16.77h-11.09V12.33ZM334.03,31.95v-.14c0-6.49-4.38-10.79-9.56-10.79s-9.48,4.3-9.48,10.79v.14c0,6.5,4.31,10.8,9.48,10.8s9.56-4.24,9.56-10.8Z"/>
        <g>
          <path d="M83.9,0h10.37l23.92,31.8V0h11.09v51.43h-9.55l-24.73-32.47v32.47h-11.1V0Z"/>
          <path d="M134.67,32.1v-.15c0-11.16,7.95-20.35,19.34-20.35,13.05,0,19.03,10.14,19.03,21.23,0,.87-.07,1.9-.15,2.92h-27.21c1.1,5.03,4.6,7.66,9.56,7.66,3.72,0,6.42-1.17,9.48-4.02l6.34,5.62c-3.64,4.52-8.9,7.29-15.97,7.29-11.75,0-20.43-8.24-20.43-20.21ZM162.24,28.82c-.65-4.97-3.57-8.32-8.23-8.32s-7.6,3.3-8.47,8.32h16.7Z"/>
          <path d="M179.96,40.34v-18.53h-4.67v-9.48h4.67V2.34h11.08v9.99h9.2v9.48h-9.2v16.71c0,2.55,1.1,3.8,3.58,3.8,2.04,0,3.86-.51,5.48-1.39v8.9c-2.34,1.39-5.04,2.26-8.76,2.26-6.78,0-11.37-2.7-11.37-11.75Z"/>
          <path d="M258.47,12.33h11.09v5.62c2.7-3.65,6.41-6.34,12.18-6.34,9.12,0,17.8,7.15,17.8,20.21v.14c0,13.06-8.53,20.21-17.8,20.21-5.91,0-9.56-2.7-12.18-5.84v16.77h-11.09V12.33ZM288.44,31.95v-.14c0-6.49-4.38-10.79-9.55-10.79s-9.48,4.3-9.48,10.79v.14c0,6.5,4.3,10.8,9.48,10.8s9.55-4.24,9.55-10.8Z"/>
          <path d="M224.26,0h10.09l21.34,51.44h-11.7l-4.7-11.46h-20.24l-4.67,11.46h-11.45L224.26,0ZM235.95,30.07l-6.78-16.57-6.79,16.57h13.57Z"/>
        </g>
      </g>
      <polygon points="0 0 0 51.44 24 51.44 24 20.58 37.71 20.58 37.71 51.44 61.71 51.44 61.71 0 0 0"/>
    </g>
  </g>
</svg>