<?xml version="1.0" encoding="UTF-8"?>
<svg id="Layer_2" data-name="Layer 2" xmlns="http://www.w3.org/2000/svg" viewBox="0 0 450 57.87">
  <defs>
    <style>
      .cls-1 {
        fill: #fff;
      }
    </style>
  </defs>
  <g id="Layer_1-2" data-name="Layer 1">
    <path class="cls-1" d="M201.19,11.94h-22.58s-.03.02-.03.03v43.93c0,.46-.38.85-.85.85h-10.91c-.46,0-.85-.38-.85-.85V11.98s-.02-.03-.03-.03h-22.51c-.46,0-.85-.38-.85-.85V1.26c0-.46.38-.85.85-.85h57.75c.46,0,.85.38.85.85v9.84c0,.46-.38.85-.85.85ZM361.6.42h-10.91c-.46,0-.85.38-.85.85v54.65c0,.46.38.85.85.85h10.91c.46,0,.85-.38.85-.85V1.26c0-.47-.38-.85-.85-.85ZM449.73,55.39c.25.21.33.56.22.86s-.41.51-.73.51h-16.8c-.19,0-.37-.07-.51-.19l-18.45-15.97c-.17-.15-.27-.36-.27-.59s.1-.44.27-.59l8.4-7.27c.29-.25.73-.25,1.02,0l26.86,23.23ZM421.86,25.02c.15.13.33.19.51.19s.36-.06.51-.19l26.85-23.24c.25-.21.33-.56.22-.86-.11-.3-.41-.51-.73-.51h-16.8c-.19,0-.37.07-.51.19l-18.45,15.97c-.17.15-.27.36-.27.59s.1.44.27.59l8.4,7.27ZM418.34,28.59c0-.23-.1-.44-.27-.59L386.42.61c-.14-.12-.32-.19-.51-.19h-16.8c-.33,0-.62.2-.73.51-.11.3-.03.65.22.86l30.94,26.78s.02.04,0,.05l-30.94,26.78c-.25.21-.33.56-.22.86s.41.51.73.51h16.8c.19,0,.37-.07.51-.19l31.65-27.39c.17-.15.27-.37.27-.59ZM12.6,18.73s.03-.05.05-.03c1.66,1.48,39.35,35.24,41.17,36.66,1.61,1.26,3.46,2.04,5.88,1.69,3.13-.38,6.57-3.05,6.57-7.55V1.26c0-.46-.38-.85-.85-.85h-10.91c-.46,0-.85.38-.85.85v37.15s-.03.05-.05.03C51.96,36.95,14.26,3.2,12.44,1.77,10.84.51,8.98-.27,6.57.09,3.44.47,0,3.14,0,7.63v48.28c0,.46.38.85.85.85h10.91c.46,0,.85-.38.85-.85V18.73ZM289.43,18.73s.03-.05.05-.03c1.66,1.48,39.35,35.24,41.17,36.66,1.61,1.26,3.46,2.04,5.88,1.69,3.13-.38,6.57-3.05,6.57-7.55V1.26c0-.46-.38-.85-.85-.85h-10.91c-.46,0-.85.38-.85.85v37.15s-.03.05-.05.03c-1.66-1.48-39.35-35.24-41.17-36.66-1.61-1.26-3.46-2.04-5.88-1.69-3.13.38-6.57,3.06-6.57,7.55v48.28c0,.46.38.85.85.85h10.91c.46,0,.85-.38.85-.85V18.73ZM108.06,57.87c6.79-.02,14.37-.4,19.01-3.14,6.19-3.65,9.19-8.72,9.19-15.49V1.26c0-.46-.38-.85-.84-.85h-11.01c-.46,0-.85.38-.85.85v37.24c-.11,7.41-9.29,7.49-15.92,7.49h-6.02c-6.63,0-15.8-.07-15.91-7.49V1.26c0-.46-.38-.85-.85-.85h-11.01c-.46,0-.85.38-.85.85v37.97c0,6.77,3.01,11.84,9.2,15.49,4.65,2.74,12.22,3.13,19.01,3.14h6.83ZM271.64,55.49c.17.25.19.57.06.84-.14.27-.41.44-.71.44h-13.47c-.27,0-.52-.13-.68-.35l-7.86-11.23s-.02-.02-.03-.02h-40.38s-.02,0-.03.02l-7.88,11.24c-.15.22-.39.34-.65.34h-13.47c-.3,0-.57-.17-.71-.44s-.11-.59.06-.84c0,0,34.25-48.89,36.36-51.8S226.5,0,228.79,0c2.52,0,4.47.94,6.35,3.46l36.51,52.03ZM240.79,33.57l-11.98-16.97s-.04-.02-.06,0l-11.99,16.97s0,.05.03.05h23.97s.05-.03.03-.05Z"/>
  </g>
</svg>