<?xml version="1.0" encoding="UTF-8"?>
<svg id="Layer_2" data-name="Layer 2" xmlns="http://www.w3.org/2000/svg" viewBox="0 0 1905.45 356">
  <g id="Layer_1-2" data-name="Layer 1">
    <g id="Layer_2-2" data-name="Layer 2">
      <g id="uuid-65588d01-5e9d-4793-b7d4-df1128e354ae" data-name="Layer 1-2">
        <path d="M1832.81,276.58v-40.66h-14.05c-15.26,0-18.86-2.28-18.86-12.92v-111.68h33.03v-37.91h-33.03V18.35h-56.6v55.05h-28.11v37.91h28.11v108.89c0,42.17,10.06,57.36,57.04,57.36,6.02,0,16.88-.77,32.55-1.14"/>
        <path d="M1508.08,275.04h57.03v-119.65c0-26.61,17.29-42.54,43.79-42.54,24.47,0,33.03,12.92,33.03,40.37v121.81h57.03v-137.52c0-46.35-23.31-69.51-70.28-69.51-26.94,0-48.59,9.87-64.67,29.36v-23.97h-55.93v201.64Z"/>
        <rect x="1416.07" y="1.91" width="57.03" height="49"/>
        <rect x="1416.07" y="73.33" width="57.03" height="201.71"/>
        <path d="M1235.76,174c0-40.37,18.35-62.39,50.21-62.39s49.8,22.02,49.8,62.39-18.21,62.69-49.84,62.69-50.21-22.43-50.21-62.69M1177.88,174c0,67.23,40.96,107.87,108.05,107.87s108.05-40.63,108.05-107.87-40.95-107.94-108.05-107.94-108.05,40.62-108.05,107.9"/>
        <path d="M1102.83,175.5c0,37.62-18.06,59.64-46.21,59.64-30.13,0-47.71-21.29-47.71-59.64,0-41.4,16.48-62.68,46.61-62.68s47.38,21.65,47.38,62.68M953.38,356h55.42v-106.03c14.05,20.88,35.74,31.89,63.05,31.89,49.8,0,87.57-42.17,87.57-108.63s-36.7-106.77-88.38-106.77c-27.71,0-46.97,10.64-63.46,34.21v-27.27h-54.2v282.6Z"/>
        <path d="M837.59,275.04h55.82V111.31h35.34v-37.91h-35.75v-14.13c0-12.92,5.21-15.19,20.88-15.19h14.87V1.14c-10.02-.77-18.83-1.14-27.27-1.14-43.79,0-63.86,16.73-63.86,54.72v18.68h-30.53v37.91h30.53l-.04,163.72Z"/>
        <path d="M645.24,174c0-40.37,18.35-62.39,50.21-62.39s49.8,22.02,49.8,62.39-18.06,62.69-49.8,62.69-50.21-22.43-50.21-62.69M587.4,174c0,67.23,40.96,107.87,108.05,107.87s108.05-40.63,108.05-107.87-41-107.94-108.08-107.94-108.2,40.7-108.2,107.94"/>
        <path d="M416.12,174c0-40.37,18.35-62.39,50.21-62.39s49.8,22.02,49.8,62.39-18.06,62.69-49.8,62.69-50.21-22.43-50.21-62.69M358.27,174c0,67.23,40.96,107.87,108.05,107.87s108.05-40.63,108.05-107.87-40.96-107.94-108.05-107.94-108.05,40.7-108.05,107.94"/>
        <path d="M228.94,275.04h57.03v-106.77c0-30.38,16.08-45.58,46.98-45.58h18.86v-54.68c-2.8-.31-5.62-.43-8.44-.37-27.3,0-46.61,12.52-61.47,40.37v-34.61h-52.96v201.64Z"/>
        <path d="M149.41,175.5c0,37.62-18.06,59.64-46.2,59.64-30.13,0-47.71-21.29-47.71-59.64,0-41.4,16.48-62.68,46.61-62.68s47.38,21.65,47.38,62.68M0,356h55.42v-106.03c14.06,20.88,35.74,31.89,63.05,31.89,49.8,0,87.57-42.17,87.57-108.63s-36.7-106.77-88.38-106.77c-27.71,0-46.97,10.64-63.46,34.21v-27.27H0v282.6Z"/>
        <path d="M1905.44,258.38c.34,12.3-9.35,22.54-21.65,22.89-12.3.34-22.55-9.35-22.89-21.65-.35-12.29,9.34-22.54,21.64-22.89.29,0,.58,0,.87,0,12.02-.14,21.88,9.48,22.02,21.51,0,.05,0,.1,0,.15ZM1866.46,258.38c-.3,9.25,6.95,17.01,16.21,17.31.24.01.47.01.71.01,9.16-.04,16.56-7.49,16.52-16.65,0-.17,0-.35-.01-.52.43-9.24-6.7-17.08-15.93-17.5-9.23-.44-17.07,6.7-17.5,15.93-.03.52-.03,1.04,0,1.57v-.15ZM1879.82,269.75h-5.03v-21.65c2.75-.49,5.54-.71,8.33-.66,2.61-.21,5.22.33,7.53,1.57,1.4,1.19,2.18,2.94,2.13,4.77-.19,2.5-2.02,4.56-4.48,5.03v.26c2.15.88,3.66,2.86,3.93,5.18.19,1.91.71,3.77,1.54,5.5h-5.43c-.84-1.67-1.42-3.45-1.72-5.29-.4-2.39-1.72-3.45-4.47-3.45h-2.39l.07,8.74ZM1879.82,257.45h2.39c2.79,0,5.02-.92,5.02-3.16s-1.47-3.3-4.62-3.3c-.94-.02-1.87.06-2.79.25v6.2Z"/>
      </g>
    </g>
  </g>
</svg>