<?xml version="1.0" encoding="UTF-8"?>
<svg id="Layer_2" data-name="Layer 2" xmlns="http://www.w3.org/2000/svg" xmlns:xlink="http://www.w3.org/1999/xlink" viewBox="0 0 239.4 51.7">
  <defs>
    <style>
      .cls-1 {
        fill: none;
      }

      .cls-2 {
        fill: url(#linear-gradient);
      }

      .cls-3 {
        clip-path: url(#clippath);
      }
    </style>
    <clipPath id="clippath">
      <path class="cls-1" d="M232.7,36.3c0,7.3-4.7,9-8.4,9s-8.4-1.7-8.4-9,4.7-9,8.4-9,8.4,1.7,8.4,9M239.4,36.3V1c0-.7-.4-1-1-1h-4.7c-.7,0-1,.4-1,1v23.5c-1.9-2.5-6-3.6-8.4-3.6-8.5,0-15.1,5.3-15.1,15.4s6.6,15.4,15.1,15.4,15.1-5.3,15.1-15.4M187.3,27.3c-3,0-6.6,1.2-7.9,5.4h15.8c-1.3-4.3-4.9-5.4-7.9-5.4M201.4,37.5h-22.5c.6,6.3,4.9,7.8,8.4,7.8s4.2-.4,5.9-2.1c.5-.4,1.1-.6,1.7-.3l4.3,1.9c.5.2.7.8.4,1.3-2.7,3.7-7,5.6-12.2,5.6-8.5,0-15.1-5.3-15.1-15.4s6.6-15.4,15.1-15.4,15.1,5.3,15.1,15.4v.2c0,.6-.6,1-1.1,1M158.9,36.3c0,7.1-4.7,9-8.4,9s-8.4-1.7-8.4-9,4.7-9,8.4-9,8.4,1.7,8.4,9M165.6,36.3c0-10.1-6.6-15.4-15.1-15.4s-6.5,1.1-8.4,3.6V1c0-.7-.4-1-1-1h-4.7c-.7,0-1,.4-1,1v35.3c0,10.1,6.6,15.4,15.1,15.4s15.1-6.5,15.1-15.4M127.8,27.1c-.1.7-.3,1-1.2.8-1.2-.3-2.4-.4-3.6-.4-3.2,0-6.1,1.2-6.1,5.8v16.5c0,.7-.4,1-1,1h-4.7c-.7,0-1-.4-1-1v-16.5c0-9,5.4-12.3,12.1-12.3s3.6.2,5.4.7c.7.2,1,.6.8,1.3l-.7,4.1h0ZM96.2,32.7h-15.8c1.3-4.2,4.9-5.4,7.9-5.4s6.6,1.1,7.9,5.4M103.4,36.5v-.2c0-10.1-6.6-15.4-15.1-15.4s-15.1,5.3-15.1,15.4,6.6,15.4,15.1,15.4,9.5-1.9,12.2-5.6c.4-.5,0-1.1-.4-1.3l-4.3-1.9c-.6-.3-1.2,0-1.7.3-1.7,1.7-3.9,2.1-5.9,2.1-3.5,0-7.9-1.5-8.4-7.8h22.5c.6,0,1.1-.4,1.1-1M58.2,49.9c-.2.7-.7.9-1.4.9h-5.2c-.7,0-1.2-.3-1.5-.9l-11.6-27.2c-.2-.5,0-.9.7-.9h5.2c.7,0,1.2.3,1.4.9l8.4,20.1,8.4-20.1c.2-.7.7-.9,1.4-.9h5.2c.5,0,.8.4.6.9l-11.6,27.2ZM31.8,22.8c0-.7-.4-1-1-1h-4.7c-.7,0-1,.4-1,1v27c0,.7.4,1,1,1h4.7c.7,0,1-.4,1-1v-27ZM28.4,6.1c2.3,0,4.1,1.8,4.1,4.1s-1.8,4.1-4.1,4.1-4.1-1.8-4.1-4.1,1.9-4.1,4.1-4.1M18.3,23.1c0-.7,0-1.1-.8-1.3-1.8-.6-3.6-.7-5.4-.7-6.7,0-12.1,3.3-12.1,12.3v16.5c0,.7.4,1,1,1h4.7c.7,0,1-.4,1-1v-16.6c0-4.7,2.9-5.8,6.1-5.8s2.3,0,3.6.4c.8.2,1-.2,1.2-.8,0,0,.7-4,.7-4Z"/>
    </clipPath>
    <linearGradient id="linear-gradient" x1="47.63" y1="-755.81" x2="263.22" y2="-532.62" gradientTransform="translate(0 -649.38) scale(1 -1)" gradientUnits="userSpaceOnUse">
      <stop offset="0" stop-color="#4c4eac"/>
      <stop offset="0" stop-color="#544db0"/>
      <stop offset="0" stop-color="#684abc"/>
      <stop offset=".2" stop-color="#8346ca"/>
      <stop offset=".3" stop-color="#9041cd"/>
      <stop offset=".3" stop-color="#b233d6"/>
      <stop offset=".3" stop-color="#c22dda"/>
      <stop offset=".4" stop-color="#e813a9"/>
      <stop offset=".5" stop-color="#f4248f"/>
      <stop offset=".5" stop-color="#ff3378"/>
      <stop offset=".5" stop-color="#ff685b"/>
      <stop offset=".6" stop-color="#ff7856"/>
      <stop offset=".7" stop-color="#fe8750"/>
      <stop offset=".9" stop-color="#fcc13a"/>
      <stop offset="1" stop-color="#fbd831"/>
    </linearGradient>
  </defs>
  <g id="Layer_1-2" data-name="Layer 1">
    <g id="RVBD">
      <g class="cls-3">
        <polygon class="cls-2" points="401.7 28.9 187.1 243.5 -93.2 -36.8 121.4 -251.4 401.7 28.9"/>
      </g>
    </g>
  </g>
</svg>