<?xml version="1.0" encoding="UTF-8"?>
<svg id="Logo" xmlns="http://www.w3.org/2000/svg" xmlns:xlink="http://www.w3.org/1999/xlink" viewBox="0 0 421.5 200">
  <defs>
    <style>
      .cls-1 {
        fill: #fff;
      }

      .cls-2 {
        clip-path: url(#clippath);
      }
    </style>
    <clipPath id="clippath">
      <path class="cls-1" d="M323.5,103c0,7.3-4.7,9-8.4,9s-8.4-1.7-8.4-9,4.7-9,8.4-9,8.4,1.7,8.4,9M330.75,103v-35c0-.7-.42-1-1.04-1h-4.91c-.73,0-1.04.4-1.04,1v23.5c-1.99-2.5-6.27-3.6-8.78-3.6-8.88,0-15.78,5.3-15.78,15.4s6.9,15.4,15.78,15.4,15.78-5.3,15.78-15.4M278.1,93.6c-3,0-6.6,1.2-7.9,5.4h15.8c-1.3-4.3-4.9-5.4-7.9-5.4M292.75,104h-22.6c.6,6.3,4.9,7.8,8.4,7.8s4.2-.4,5.9-2.1c.5-.4,1.1-.6,1.7-.3l4.3,1.9c.5.2.7.8.4,1.3-2.7,3.7-7,5.6-12.2,5.6-8.5,0-15.1-5.3-15.1-15.4s6.6-15.4,15.1-15.4,15.1,5.3,15.1,15.4v.2c0,.6-.6,1-1.1,1M249.7,103c0,7.1-4.7,9-8.4,9s-8.4-1.7-8.4-9,4.7-9,8.4-9,8.4,1.7,8.4,9M257.3,103.3c0-10.1-6.9-15.4-15.78-15.4s-6.79,1.1-8.78,3.6v-23.5c0-.7-.42-1-1.04-1h-4.91c-.73,0-1.04.4-1.04,1v35.3c0,10.1,6.9,15.4,15.78,15.4s15.78-6.5,15.78-15.4M219.14,94.3c-.1.7-.31,1-1.25.8-1.25-.3-2.51-.4-3.76-.4-3.34,0-6.37,1.2-6.37,5.8v16.5c0,.7-.42,1-1.04,1h-4.91c-.73,0-1.04-.4-1.04-1v-16.5c0-9,5.64-12.3,12.64-12.3s3.76.2,5.64.7c.73.2,1.04.6.84,1.3l-.73,4.1h0ZM186.75,99h-15.55c1.3-4.2,4.9-5.4,7.9-5.4s6.6,1.1,7.9,5.4M193.75,103v-.2c0-10.1-6.6-15.4-15.1-15.4s-15.1,5.3-15.1,15.4,6.6,15.4,15.1,15.4,9.5-1.9,12.2-5.6c.4-.5,0-1.1-.4-1.3l-4.3-1.9c-.6-.3-1.2,0-1.7.3-1.7,1.7-3.9,2.1-5.9,2.1-3.5,0-7.9-1.5-8.4-7.8h22.5c.6,0,1.1-.4,1.1-1M149,117.1c-.2.7-.7.9-1.4.9h-5.2c-.7,0-1.2-.3-1.5-.9l-11.6-27.2c-.2-.5,0-.9.7-.9h5.2c.7,0,1.2.3,1.4.9l8.4,20.1,8.4-20.1c.2-.7.7-.9,1.4-.9h5.2c.5,0,.8.4.6.9,0,0-11.6,27.2-11.6,27.2ZM122.75,90c0-.7-.42-1-1.04-1h-4.91c-.73,0-1.04.4-1.04,1v27c0,.7.42,1,1.04,1h4.91c.73,0,1.04-.4,1.04-1v-27ZM119.2,72.8c2.3,0,4.1,1.8,4.1,4.1s-1.8,4.1-4.1,4.1-4.1-1.8-4.1-4.1,1.9-4.1,4.1-4.1M109.87,90.2c0-.7,0-1.1-.84-1.3-1.88-.6-3.76-.7-5.64-.7-7,0-12.64,3.3-12.64,12.3v16.5c0,.7.42,1,1.04,1h4.91c.73,0,1.04-.4,1.04-1v-16.6c0-4.7,3.03-5.8,6.37-5.8s2.4,0,3.76.4c.84.2,1.04-.2,1.25-.8,0,0,.73-4,.73-4Z"/>
    </clipPath>
  </defs>
  <g id="RVBD">
    <g>
      <path class="cls-1" d="M323.5,103c0,7.3-4.7,9-8.4,9s-8.4-1.7-8.4-9,4.7-9,8.4-9,8.4,1.7,8.4,9M330.75,103v-35c0-.7-.42-1-1.04-1h-4.91c-.73,0-1.04.4-1.04,1v23.5c-1.99-2.5-6.27-3.6-8.78-3.6-8.88,0-15.78,5.3-15.78,15.4s6.9,15.4,15.78,15.4,15.78-5.3,15.78-15.4M278.1,93.6c-3,0-6.6,1.2-7.9,5.4h15.8c-1.3-4.3-4.9-5.4-7.9-5.4M292.75,104h-22.6c.6,6.3,4.9,7.8,8.4,7.8s4.2-.4,5.9-2.1c.5-.4,1.1-.6,1.7-.3l4.3,1.9c.5.2.7.8.4,1.3-2.7,3.7-7,5.6-12.2,5.6-8.5,0-15.1-5.3-15.1-15.4s6.6-15.4,15.1-15.4,15.1,5.3,15.1,15.4v.2c0,.6-.6,1-1.1,1M249.7,103c0,7.1-4.7,9-8.4,9s-8.4-1.7-8.4-9,4.7-9,8.4-9,8.4,1.7,8.4,9M257.3,103.3c0-10.1-6.9-15.4-15.78-15.4s-6.79,1.1-8.78,3.6v-23.5c0-.7-.42-1-1.04-1h-4.91c-.73,0-1.04.4-1.04,1v35.3c0,10.1,6.9,15.4,15.78,15.4s15.78-6.5,15.78-15.4M219.14,94.3c-.1.7-.31,1-1.25.8-1.25-.3-2.51-.4-3.76-.4-3.34,0-6.37,1.2-6.37,5.8v16.5c0,.7-.42,1-1.04,1h-4.91c-.73,0-1.04-.4-1.04-1v-16.5c0-9,5.64-12.3,12.64-12.3s3.76.2,5.64.7c.73.2,1.04.6.84,1.3l-.73,4.1h0ZM186.75,99h-15.55c1.3-4.2,4.9-5.4,7.9-5.4s6.6,1.1,7.9,5.4M193.75,103v-.2c0-10.1-6.6-15.4-15.1-15.4s-15.1,5.3-15.1,15.4,6.6,15.4,15.1,15.4,9.5-1.9,12.2-5.6c.4-.5,0-1.1-.4-1.3l-4.3-1.9c-.6-.3-1.2,0-1.7.3-1.7,1.7-3.9,2.1-5.9,2.1-3.5,0-7.9-1.5-8.4-7.8h22.5c.6,0,1.1-.4,1.1-1M149,117.1c-.2.7-.7.9-1.4.9h-5.2c-.7,0-1.2-.3-1.5-.9l-11.6-27.2c-.2-.5,0-.9.7-.9h5.2c.7,0,1.2.3,1.4.9l8.4,20.1,8.4-20.1c.2-.7.7-.9,1.4-.9h5.2c.5,0,.8.4.6.9,0,0-11.6,27.2-11.6,27.2ZM122.75,90c0-.7-.42-1-1.04-1h-4.91c-.73,0-1.04.4-1.04,1v27c0,.7.42,1,1.04,1h4.91c.73,0,1.04-.4,1.04-1v-27ZM119.2,72.8c2.3,0,4.1,1.8,4.1,4.1s-1.8,4.1-4.1,4.1-4.1-1.8-4.1-4.1,1.9-4.1,4.1-4.1M109.87,90.2c0-.7,0-1.1-.84-1.3-1.88-.6-3.76-.7-5.64-.7-7,0-12.64,3.3-12.64,12.3v16.5c0,.7.42,1,1.04,1h4.91c.73,0,1.04-.4,1.04-1v-16.6c0-4.7,3.03-5.8,6.37-5.8s2.4,0,3.76.4c.84.2,1.04-.2,1.25-.8,0,0,.73-4,.73-4Z"/>
      <g class="cls-2">
        <polygon class="cls-1" points="492.5 95.6 277.9 310.2 -2.4 29.9 212.2 -184.7 492.5 95.6"/>
      </g>
    </g>
  </g>
</svg>