<svg width="154" height="56" viewBox="0 0 154 56" fill="none" xmlns="http://www.w3.org/2000/svg">
<path d="M74.1136 23.2578C65.5144 20.9468 62.1575 18.9938 62.1575 15.0506C62.1575 9.07371 69.8513 8.49446 72.6076 8.49446C76.9416 8.49446 82.4531 9.8747 85.7151 11.4761L89.1728 5.01187C84.7683 2.84903 78.0213 1.40002 72.3782 1.40002C60.3699 1.40002 52.8528 6.59842 52.8528 15.4881C52.8528 25.6412 63.4553 28.509 71.6982 30.7181C80.2831 33.0262 83.2777 35.6278 83.2777 39.5734C83.2777 46.1497 76.2616 47.1754 71.9193 47.1754C65.9573 47.1754 61.0357 45.5924 56.2257 42.7684L52.1206 49.3821C58.1893 52.94 64.4834 54.6 71.9193 54.6C84.339 54.6 92.5878 48.4856 92.5878 39.0191C92.5878 28.4509 82.5515 25.5244 74.1136 23.2578ZM41.7593 17.4423C41.6271 8.53537 34.2777 2.32018 23.8803 2.32018H1.39999V53.317H9.5883V9.76561H23.4137C28.0448 9.76561 33.0232 12.0583 33.1044 17.5513C33.1762 22.4379 29.3349 25.4942 22.8256 25.7557L22.6981 25.7646L17.7404 25.8061L34.2499 53.4012L43.9216 53.3828C43.9216 53.3828 35.9787 40.04 30.9961 31.6685C38.3319 29.0657 41.8417 23.3076 41.7593 17.4423ZM153.1 53.3828L143.09 53.4012L124.947 13.6199L107.563 53.4012H97.4921L120.34 2.66879L129.733 2.66227L153.1 53.3828Z" fill="#BE3A34"/>
<path d="M148.853 5.75626C149.012 5.75626 149.165 5.7494 149.311 5.73706C149.458 5.72609 149.587 5.69044 149.696 5.63285C149.803 5.57526 149.893 5.49573 149.96 5.39289C150.027 5.28868 150.06 5.14334 150.06 4.95412C150.06 4.7978 150.025 4.6744 149.953 4.58527C149.882 4.4934 149.792 4.42347 149.683 4.37411C149.573 4.32475 149.453 4.29458 149.318 4.28224C149.184 4.2699 149.054 4.26304 148.929 4.26304H147.897V5.75626H148.853ZM147.897 8.6563H147.042V3.54729H149.017C149.645 3.54729 150.119 3.66384 150.438 3.89283C150.756 4.12455 150.914 4.49751 150.914 5.01582C150.914 5.47654 150.786 5.81385 150.526 6.02775C150.266 6.24302 149.943 6.36917 149.557 6.41168L151.016 8.6563H150.048L148.701 6.47338H147.897V8.6563ZM152.423 6.01678C152.423 5.45597 152.332 4.94178 152.148 4.4742C151.962 4.00389 151.708 3.60076 151.38 3.26346C151.054 2.92752 150.672 2.66425 150.236 2.47914C149.801 2.2954 149.331 2.20216 148.828 2.20216C148.317 2.20216 147.84 2.2954 147.401 2.47914C146.96 2.66425 146.577 2.92752 146.25 3.26346C145.923 3.60076 145.667 4.00389 145.483 4.4742C145.298 4.94178 145.205 5.45597 145.205 6.01678C145.205 6.54194 145.29 7.03694 145.458 7.49765C145.625 7.95837 145.866 8.36149 146.181 8.70703C146.494 9.0512 146.875 9.32543 147.319 9.527C147.763 9.72856 148.266 9.82866 148.828 9.82866C149.331 9.82866 149.801 9.73542 150.236 9.55168C150.672 9.36657 151.054 9.10604 151.38 8.76736C151.708 8.43005 151.962 8.0283 152.148 7.56347C152.332 7.10001 152.423 6.58445 152.423 6.01678ZM153.431 6.01678C153.431 6.70648 153.306 7.33585 153.06 7.90489C152.813 8.47256 152.478 8.95659 152.054 9.35971C151.63 9.76284 151.141 10.0768 150.582 10.299C150.025 10.5197 149.44 10.6308 148.828 10.6308C148.149 10.6308 147.527 10.5142 146.96 10.2798C146.394 10.0453 145.908 9.72307 145.501 9.31035C145.094 8.899 144.776 8.41223 144.547 7.84867C144.316 7.28375 144.2 6.67357 144.2 6.01678C144.2 5.32571 144.324 4.69634 144.57 4.12867C144.818 3.561 145.153 3.07423 145.576 2.67111C146 2.26798 146.492 1.95672 147.055 1.73459C147.616 1.51109 148.208 1.40002 148.828 1.40002C149.44 1.40002 150.025 1.51109 150.582 1.73459C151.141 1.95672 151.63 2.26798 152.054 2.67111C152.478 3.07423 152.813 3.561 153.06 4.12867C153.306 4.69634 153.431 5.32571 153.431 6.01678Z" fill="#BE3A34"/>
</svg>
