<?xml version="1.0" encoding="UTF-8"?>
<svg id="Layer_2" data-name="Layer 2" xmlns="http://www.w3.org/2000/svg" xmlns:xlink="http://www.w3.org/1999/xlink" viewBox="0 0 240 45.41">
  <defs>
    <style>
      .cls-1 {
        fill: none;
      }

      .cls-2 {
        fill: url(#linear-gradient-5);
      }

      .cls-3 {
        fill: url(#linear-gradient-4);
      }

      .cls-4 {
        fill: url(#linear-gradient-3);
      }

      .cls-5 {
        fill: url(#linear-gradient-2);
      }

      .cls-6 {
        fill: url(#linear-gradient);
      }

      .cls-7 {
        clip-path: url(#clippath);
      }
    </style>
    <clipPath id="clippath">
      <rect class="cls-1" width="240" height="45.41"/>
    </clipPath>
    <linearGradient id="linear-gradient" x1="36.5" y1="91.25" x2="18.46" y2="100.28" gradientTransform="translate(0 104.82) scale(1 -1)" gradientUnits="userSpaceOnUse">
      <stop offset="0" stop-color="#4500b6"/>
      <stop offset="1" stop-color="#6100ff"/>
    </linearGradient>
    <linearGradient id="linear-gradient-2" x1="36.5" y1="72.99" x2="18.46" y2="63.96" xlink:href="#linear-gradient"/>
    <linearGradient id="linear-gradient-3" x1=".43" y1="91.25" x2="18.47" y2="100.28" gradientTransform="translate(0 104.82) scale(1 -1)" gradientUnits="userSpaceOnUse">
      <stop offset="0" stop-color="#6100ff"/>
      <stop offset="1" stop-color="#4500b6"/>
    </linearGradient>
    <linearGradient id="linear-gradient-4" x1=".43" y1="72.99" x2="18.47" y2="63.96" xlink:href="#linear-gradient-3"/>
    <linearGradient id="linear-gradient-5" x1="28.15" y1="77.27" x2="8.63" y2="87.05" xlink:href="#linear-gradient-3"/>
  </defs>
  <g id="Layer_1-2" data-name="Layer 1">
    <g class="cls-7">
      <g>
        <path d="M63.33,20.77c-3.91-.75-5.81-1.15-5.81-3.08,0-1.83,1.59-2.74,3.75-2.74,2.47,0,3.98,1.39,4.19,3.39h5c-.1-4.53-3.61-7.45-9.18-7.45s-8.81,2.98-8.81,7.18c0,4.81,3.48,6.06,7.49,6.84,3.95.78,5.88,1.18,5.88,3.18,0,1.86-1.72,2.87-4.05,2.87-2.9,0-4.73-1.59-4.89-3.89l-5-.07c.07,4.81,3.82,7.99,9.83,7.99,5.54,0,9.18-3.04,9.22-7.48,0-4.77-3.58-5.99-7.6-6.73h-.01s0,0,0,0h0Z"/>
        <path d="M101.75,17.18c-2.7,0-4.46,2-5.25,4.38h-1.25l1.11-2.49c.23-.53.36-1.1.36-1.68h-5.45v17.39h4.77v-8.9c0-3.01,1.42-4.77,3.89-4.77s3.52,1.56,3.52,4.5v9.17h4.78v-9.75c0-5.92-2.88-7.85-6.47-7.85h0Z"/>
        <path d="M140.54,17.18c-2.7,0-4.46,2-5.25,4.38h-1.25l1.11-2.49c.24-.53.36-1.1.36-1.68h-5.45v17.39h4.77v-8.9c0-3.01,1.42-4.77,3.89-4.77s3.52,1.56,3.52,4.5v9.17h4.77v-9.75c0-5.92-2.88-7.85-6.47-7.85h0Z"/>
        <path d="M127.61,17.39h-4.79v17.39h4.79v-17.39h0Z"/>
        <path d="M172.57,10.42l-4.76,2.4v21.96h4.76V10.42Z"/>
        <path d="M127.61,11.29h-4.79v4.79h4.79v-4.79Z"/>
        <path d="M116.62,17.39v-6.16l-4.76,2.4v3.76h-2.87v4.02h2.87v10.81c0,1.41,1.14,2.55,2.55,2.55h6.19v-4.02h-3.98v-9.34h3.98v-4.02h-3.98Z"/>
        <path d="M148.5,26.11c0-5.42,3.55-8.94,8.93-8.94s8.73,3.25,8.77,8.36c0,.51-.03,1.08-.14,1.62h-12.59v.24c.1,2.47,1.69,3.96,4.1,3.96,1.9,0,3.25-.85,3.69-2.47h4.71c-.54,3.39-3.55,6.09-8.22,6.09-5.79,0-9.24-3.49-9.24-8.87h0ZM161.4,24.05c-.31-2.13-1.79-3.32-3.93-3.32s-3.62,1.25-3.89,3.32h7.82,0Z"/>
        <path d="M211.91,17.18c-2.7,0-4.46,2-5.25,4.38h-1.25l1.11-2.49c.23-.53.36-1.1.36-1.68h-5.45v17.39h4.77v-8.9c0-3.01,1.42-4.77,3.89-4.77s3.52,1.56,3.52,4.5v9.17h4.78v-9.75c0-5.92-2.88-7.85-6.47-7.85h0Z"/>
        <path d="M219.87,26.11c0-5.42,3.55-8.94,8.93-8.94s8.73,3.25,8.77,8.36c0,.51-.03,1.08-.14,1.62h-12.59v.24c.1,2.47,1.69,3.96,4.1,3.96,1.89,0,3.25-.85,3.69-2.47h4.7c-.54,3.39-3.55,6.09-8.22,6.09-5.79,0-9.24-3.49-9.24-8.87h0ZM232.76,24.05c-.31-2.13-1.8-3.32-3.93-3.32s-3.62,1.25-3.89,3.32h7.82,0Z"/>
        <path d="M72.12,26.11c0-5.42,3.55-8.94,8.94-8.94s8.73,3.25,8.77,8.36c0,.51-.03,1.08-.14,1.62h-12.59v.24c.1,2.47,1.69,3.96,4.1,3.96,1.89,0,3.25-.85,3.69-2.47h4.7c-.54,3.39-3.55,6.09-8.22,6.09-5.79,0-9.24-3.49-9.24-8.87h0ZM85.02,24.05c-.3-2.13-1.79-3.32-3.93-3.32s-3.62,1.25-3.89,3.32h7.82,0Z"/>
        <path d="M187.73,34.98c-6.97,0-12.02-5.14-12.02-12.04s5.05-12.04,12.02-12.04,12.09,5.14,12.09,12.04-5.12,12.04-12.09,12.04ZM187.73,30.69c3.96,0,6.88-3.28,6.88-7.75s-2.92-7.75-6.88-7.75-6.84,3.28-6.84,7.75,2.85,7.75,6.84,7.75Z"/>
        <path d="M237.71,16.24h.62c.34,0,.56.2.56.51,0,.2-.1.35-.26.43l.3.59h-.36l-.26-.51h-.28v.51h-.33v-1.53h0ZM238.04,16.51v.47h.27c.15,0,.25-.09.25-.23s-.1-.24-.25-.24h-.27Z"/>
        <path d="M238.26,18.57c-.85,0-1.54-.69-1.54-1.54s.69-1.54,1.54-1.54,1.54.69,1.54,1.54-.69,1.54-1.54,1.54ZM238.26,15.82c-.67,0-1.21.54-1.21,1.21s.54,1.21,1.21,1.21,1.21-.54,1.21-1.21-.54-1.21-1.21-1.21Z"/>
        <path class="cls-6" d="M18.47,9.1l18.17,9.08v-9.1L18.47,0v9.1Z"/>
        <path class="cls-5" d="M18.47,36.31l18.17-9.08v9.1l-18.17,9.08v-9.1Z"/>
        <path class="cls-4" d="M18.47,9.1L.3,18.18v-9.1L18.47,0v9.1Z"/>
        <path class="cls-3" d="M18.47,36.31L.3,27.22v9.1l18.17,9.08v-9.1Z"/>
        <path class="cls-2" d="M4.84,20.44l18.15,9.08,9.1-4.55L13.94,15.89l-9.11,4.55Z"/>
      </g>
    </g>
  </g>
</svg>