<?xml version="1.0" encoding="UTF-8"?>
<svg id="Layer_1" data-name="Layer 1" xmlns="http://www.w3.org/2000/svg" viewBox="0 0 483.3 107.5">
  <defs>
    <style>
      .cls-1 {
        fill: #82bed2;
      }

      .cls-2 {
        fill: #313271;
      }
    </style>
  </defs>
  <path class="cls-2" d="M480.55,67c0,7.87-2.27,10.2-8.4,12.11-6.62,2.02-18.39,3.33-25.41,3.33-8.3,0-18.68-.5-27.48-2.62v-9.09h48.73v-12.42h-34.5c-10.38,0-14.23-2.93-14.23-13.23v-5.35c0-8.18,2.37-10.6,8.8-12.32,6.52-1.72,17.2-2.83,24.22-2.83,8.5,0,18.68.71,27.48,2.73v9.09h-47.94v10.4h34.5c10.38,0,14.23,2.83,14.23,13.23v6.97h0Z"/>
  <path class="cls-2" d="M397.51,79.72c-10.08,2.02-20.26,2.62-30.15,2.62s-20.17-.61-30.35-2.62V27.23c10.08-2.02,20.36-2.73,30.15-2.73s19.87.61,29.95,2.73v9.29h-45.67v10.5h29.75v10.9h-29.75v12.42h45.87v9.39s.2,0,.2,0Z"/>
  <path class="cls-2" d="M319.62,79.72c-9.09,2.02-18.19,2.62-26.99,2.62s-18.09-.5-27.18-2.62V25.81h14.53v43.92h39.64v9.99h0Z"/>
  <path class="cls-2" d="M248.05,80.13c-4.84,1.41-11.27,1.92-16.01,2.02l-22.44-46.24h-1.29l-22.34,46.24c-4.74-.1-10.38-.61-15.22-2.02l28.37-54.32h20.26l28.67,54.32Z"/>
  <path class="cls-1" d="M218.49,66.3c0,5.35-4.25,9.59-9.49,9.59s-9.39-4.34-9.39-9.59,4.25-9.59,9.39-9.59c5.24,0,9.49,4.24,9.49,9.59"/>
  <path class="cls-2" d="M153.25,80.13c-4.65,1.41-9.59,1.82-14.53,1.92v-23.52h-36.08v23.52c-4.94-.1-9.89-.61-14.53-1.92V26.82c4.65-1.41,9.59-1.82,14.53-1.92v22.72h36.08v-22.72c4.94.1,9.89.61,14.53,1.92v53.31Z"/>
  <path class="cls-2" d="M67.74,36.72h-25.5v44.42h-14.43v-44.42H2.3v-9.49c10.97-2.02,22.04-2.73,32.72-2.73s21.75.61,32.72,2.73v9.49Z"/>
</svg>