<?xml version="1.0" encoding="utf-8"?>
<!-- Generator: Adobe Illustrator 28.0.0, SVG Export Plug-In . SVG Version: 6.00 Build 0)  -->
<svg version="1.1" id="Logo" xmlns="http://www.w3.org/2000/svg" xmlns:xlink="http://www.w3.org/1999/xlink" x="0px" y="0px"
	 viewBox="0 0 421.5 200" style="enable-background:new 0 0 421.5 200;" xml:space="preserve">
<style type="text/css">
	.st0{fill:#00D15F;}
	.st1{fill:#40DC87;enable-background:new    ;}
	.st2{fill:#FFFFFF;}
</style>
<g>
	<path class="st0" d="M77.9,50.4c-2.9,0-5.6,1.1-7.6,3.2L54,69.9c-2,2-3.2,4.8-3.2,7.6v69.1l293-0.2c2.9,0,5.6-1.1,7.6-3.2
		l16.1-16.2c2-2,3.2-4.8,3.2-7.6l0-69.1L77.9,50.4z"/>
	<path class="st1" d="M50.8,86.8v59.8h107.1c0,0,12.2,0.6,21.6-1.5c17.4-3.8,27.7-11.2,40.6-24.1c21.8-21.8,70.6-70.5,70.6-70.5
		l-106.9,0l-73.6,73.4c0,0-4.4,5.3-10.5,5.3c-6.6-0.1-9.5-3.2-9.5-3.2L50.8,86.8z"/>
	<g>
		<g>
			<path class="st2" d="M95.6,121.5L73.5,75.3h10c0,0,15.8,33.1,16.2,34.7h0.2c0.4-1.7,16.2-34.7,16.2-34.7h10.1L104,121.5H95.6z"/>
			<path class="st2" d="M168.9,102h-35.8c1.3,7.5,6.8,12.2,13.9,12.2c5.8,0,9.7-2.3,11.6-6.5h9.3c-2.8,8.8-10.7,14.8-20.9,14.8
				c-13.4,0-23.3-9.8-23.3-24.1c0-14.2,9.7-24.1,23.3-24.1c12.1,0,22.1,10.4,22.1,24.1C169.1,99.8,169.1,100.6,168.9,102z
				 M133.2,94.5h26.5c-0.6-6.3-5.7-11.8-12.7-11.8C139.9,82.6,134.6,87.3,133.2,94.5z"/>
			<path class="st2" d="M218,102h-35.8c1.3,7.5,6.8,12.2,13.9,12.2c5.8,0,9.7-2.3,11.6-6.5h9.3c-2.8,8.8-10.7,14.8-20.9,14.8
				c-13.4,0-23.3-9.8-23.3-24.1c0-14.2,9.7-24.1,23.3-24.1c12.1,0,22.1,10.4,22.1,24.1C218.2,99.8,218.2,100.6,218,102z M182.3,94.5
				h26.5c-0.6-6.3-5.7-11.8-12.7-11.8C189,82.6,183.7,87.3,182.3,94.5z"/>
			<path class="st2" d="M268.2,98.4v23.1h-8l-0.8-7.2c-3.5,5.3-9.8,8.2-15.4,8.2c-12.6,0-22.2-10.1-22.2-24.1
				c0-13.8,10.3-24.1,23.4-24.1C257.3,74.3,268.2,83,268.2,98.4z M259.1,98.4c0-10.2-6.7-15.8-13.9-15.8c-7.9,0-14.3,6.3-14.3,15.8
				c0,9.5,5.9,15.8,14.3,15.8C252.3,114.2,259.1,108.3,259.1,98.4z"/>
			<path class="st2" d="M274.3,121.5V94.2c0-11.5,7.4-19.8,18.9-19.8c9.3,0,14.2,6.2,14.9,8.4h0.2c0.7-2.2,5.6-8.4,14.9-8.4
				c11.5,0,18.9,8.3,18.9,19.8v27.3h-9.1V94.9c0-7.5-3.4-12-10.2-12c-6.8,0-10.2,4.5-10.2,12.2v26.6h-9.1V95.1
				c0-7.7-3.4-12.2-10.2-12.2s-10.2,4.5-10.2,12v26.7H274.3z"/>
		</g>
	</g>
</g>
</svg>
