<?xml version="1.0" encoding="UTF-8"?>
<svg id="Logo" xmlns="http://www.w3.org/2000/svg" viewBox="0 0 421.5 200">
  <defs>
    <style>
      .cls-1 {
        fill: #fff;
      }
    </style>
  </defs>
  <path class="cls-1" d="M106.4,123.1l-22.1-46.2h10s15.8,33.1,16.2,34.7h.2c.4-1.7,16.2-34.7,16.2-34.7h10.1l-22.2,46.2h-8.4Z"/>
  <path class="cls-1" d="M179.7,103.6h-35.8c1.3,7.5,6.8,12.2,13.9,12.2,5.8,0,9.7-2.3,11.6-6.5h9.3c-2.8,8.8-10.7,14.8-20.9,14.8-13.4,0-23.3-9.8-23.3-24.1s9.7-24.1,23.3-24.1c12.1,0,22.1,10.4,22.1,24.1,0,1.4,0,2.2-.2,3.6ZM144,96.1h26.5c-.6-6.3-5.7-11.8-12.7-11.8-7.1-.1-12.4,4.6-13.8,11.8Z"/>
  <path class="cls-1" d="M228.8,103.6h-35.8c1.3,7.5,6.8,12.2,13.9,12.2,5.8,0,9.7-2.3,11.6-6.5h9.3c-2.8,8.8-10.7,14.8-20.9,14.8-13.4,0-23.3-9.8-23.3-24.1s9.7-24.1,23.3-24.1c12.1,0,22.1,10.4,22.1,24.1,0,1.4,0,2.2-.2,3.6ZM193.1,96.1h26.5c-.6-6.3-5.7-11.8-12.7-11.8-7.1-.1-12.4,4.6-13.8,11.8Z"/>
  <path class="cls-1" d="M279,100v23.1h-8l-.8-7.2c-3.5,5.3-9.8,8.2-15.4,8.2-12.6,0-22.2-10.1-22.2-24.1s10.3-24.1,23.4-24.1c12.1,0,23,8.7,23,24.1ZM269.9,100c0-10.2-6.7-15.8-13.9-15.8-7.9,0-14.3,6.3-14.3,15.8s5.9,15.8,14.3,15.8c7.1,0,13.9-5.9,13.9-15.8Z"/>
  <path class="cls-1" d="M285.1,123.1v-27.3c0-11.5,7.4-19.8,18.9-19.8,9.3,0,14.2,6.2,14.9,8.4h.2c.7-2.2,5.6-8.4,14.9-8.4,11.5,0,18.9,8.3,18.9,19.8v27.3h-9.1v-26.6c0-7.5-3.4-12-10.2-12s-10.2,4.5-10.2,12.2v26.6h-9.1v-26.6c0-7.7-3.4-12.2-10.2-12.2s-10.2,4.5-10.2,12v26.7h-8.8v-.1Z"/>
</svg>