<?xml version="1.0" encoding="UTF-8"?>
<svg id="Layer_2" data-name="Layer 2" xmlns="http://www.w3.org/2000/svg" viewBox="0 0 324.9 123.15">
  <defs>
    <style>
      .cls-1 {
        fill: #ededed;
      }

      .cls-1, .cls-2, .cls-3, .cls-4, .cls-5, .cls-6, .cls-7, .cls-8, .cls-9, .cls-10, .cls-11, .cls-12, .cls-13, .cls-14, .cls-15, .cls-16, .cls-17, .cls-18, .cls-19, .cls-20, .cls-21, .cls-22, .cls-23, .cls-24, .cls-25, .cls-26, .cls-27, .cls-28, .cls-29, .cls-30, .cls-31 {
        fill-rule: evenodd;
      }

      .cls-2 {
        fill: #fff;
      }

      .cls-3 {
        fill: #e4e4e3;
      }

      .cls-4 {
        fill: #312783;
      }

      .cls-5 {
        fill: #e9e9e8;
      }

      .cls-6 {
        fill: #eaeaea;
      }

      .cls-7 {
        fill: #ef7d00;
      }

      .cls-8 {
        fill: #fefefe;
      }

      .cls-9 {
        fill: #f6f6f6;
      }

      .cls-10 {
        fill: #f0f0f0;
      }

      .cls-11 {
        fill: #ebebeb;
      }

      .cls-12 {
        fill: #e5e5e5;
      }

      .cls-13 {
        fill: #ececeb;
      }

      .cls-14 {
        fill: #eee;
      }

      .cls-15 {
        fill: #e7e7e7;
      }

      .cls-16 {
        fill: #f1f1f1;
      }

      .cls-17 {
        fill: #e4e4e4;
      }

      .cls-18 {
        fill: #f3f3f3;
      }

      .cls-19 {
        fill: #ececec;
      }

      .cls-20 {
        fill: #e6e6e6;
      }

      .cls-21 {
        fill: #0075bf;
      }

      .cls-22 {
        fill: #f4f4f4;
      }

      .cls-23 {
        fill: #f7f7f7;
      }

      .cls-24 {
        fill: #f9f9f9;
      }

      .cls-32 {
        fill: #575756;
      }

      .cls-25 {
        fill: #fcfcfc;
      }

      .cls-26 {
        fill: #f8f8f8;
      }

      .cls-27 {
        fill: #f2f2f2;
      }

      .cls-28 {
        fill: #fbfbfb;
      }

      .cls-29 {
        fill: #e8e8e8;
      }

      .cls-30 {
        fill: #fafafa;
      }

      .cls-31 {
        fill: #efefef;
      }
    </style>
  </defs>
  <g id="Camada_1" data-name="Camada 1">
    <g>
      <path class="cls-3" d="M61.58,0c34,0,61.58,27.57,61.58,61.58s-27.57,61.58-61.58,61.58S0,95.58,0,61.58,27.57,0,61.58,0"/>
      <path class="cls-17" d="M61.58.2c33.89,0,61.37,27.48,61.37,61.37s-27.48,61.37-61.37,61.37S.2,95.47.2,61.58,27.69.2,61.58.2"/>
      <path class="cls-12" d="M61.58.41c33.77,0,61.16,27.39,61.16,61.16s-27.39,61.17-61.16,61.17S.41,95.35.41,61.58,27.8.41,61.58.41"/>
      <path class="cls-20" d="M61.58.61c33.66,0,60.96,27.3,60.96,60.96s-27.3,60.96-60.96,60.96S.62,95.24.62,61.58,27.92.61,61.58.61"/>
      <path class="cls-15" d="M61.58.82c33.55,0,60.75,27.2,60.75,60.75s-27.21,60.75-60.75,60.75S.82,95.12.82,61.58,28.03.82,61.58.82"/>
      <path class="cls-29" d="M61.58,1.03c33.43,0,60.55,27.11,60.55,60.55s-27.11,60.55-60.55,60.55S1.03,95.01,1.03,61.58,28.15,1.03,61.58,1.03"/>
      <path class="cls-5" d="M61.58,1.23c33.32,0,60.34,27.02,60.34,60.34s-27.02,60.34-60.34,60.34S1.23,94.9,1.23,61.58,28.25,1.23,61.58,1.23"/>
      <path class="cls-6" d="M61.58,1.44c33.2,0,60.13,26.93,60.13,60.14s-26.93,60.14-60.13,60.14S1.44,94.79,1.44,61.58,28.37,1.44,61.58,1.44"/>
      <path class="cls-11" d="M61.58,1.65c33.1,0,59.93,26.84,59.93,59.93s-26.83,59.93-59.93,59.93S1.64,94.67,1.64,61.58,28.48,1.65,61.58,1.65"/>
      <path class="cls-13" d="M61.58,1.85c32.98,0,59.73,26.74,59.73,59.72s-26.75,59.73-59.73,59.73S1.85,94.56,1.85,61.58,28.59,1.85,61.58,1.85"/>
      <path class="cls-19" d="M61.58,2.06c32.87,0,59.52,26.65,59.52,59.52s-26.65,59.52-59.52,59.52S2.06,94.44,2.06,61.58,28.71,2.06,61.58,2.06"/>
      <path class="cls-1" d="M61.58,2.27c32.75,0,59.31,26.56,59.31,59.31s-26.56,59.31-59.31,59.31S2.27,94.33,2.27,61.58,28.82,2.27,61.58,2.27"/>
      <path class="cls-14" d="M61.58,2.47c32.63,0,59.11,26.47,59.11,59.11s-26.47,59.11-59.11,59.11S2.47,94.22,2.47,61.58,28.94,2.47,61.58,2.47"/>
      <path class="cls-31" d="M61.58,2.68c32.53,0,58.9,26.37,58.9,58.9s-26.37,58.9-58.9,58.9S2.67,94.1,2.67,61.58,29.05,2.68,61.58,2.68"/>
      <path class="cls-10" d="M61.58,2.88c32.41,0,58.7,26.28,58.7,58.69s-26.29,58.7-58.7,58.7S2.88,93.99,2.88,61.58,29.16,2.88,61.58,2.88"/>
      <path class="cls-16" d="M61.58,3.09c32.3,0,58.49,26.19,58.49,58.49s-26.19,58.49-58.49,58.49S3.09,93.88,3.09,61.58,29.28,3.09,61.58,3.09"/>
      <path class="cls-27" d="M61.58,3.29c32.18,0,58.28,26.1,58.28,58.28s-26.1,58.28-58.28,58.28S3.29,93.76,3.29,61.58,29.39,3.29,61.58,3.29"/>
      <path class="cls-18" d="M61.58,3.5c32.07,0,58.07,26.01,58.07,58.08s-26.01,58.08-58.07,58.08S3.5,93.65,3.5,61.58,29.51,3.5,61.58,3.5"/>
      <path class="cls-22" d="M61.58,3.7c31.96,0,57.87,25.92,57.87,57.87s-25.91,57.87-57.87,57.87S3.71,93.53,3.71,61.58,29.62,3.7,61.58,3.7"/>
      <path class="cls-22" d="M61.58,3.91c31.84,0,57.66,25.82,57.66,57.66s-25.82,57.67-57.66,57.67S3.91,93.42,3.91,61.58,29.74,3.91,61.58,3.91"/>
      <path class="cls-9" d="M61.58,4.12c31.73,0,57.46,25.73,57.46,57.46s-25.73,57.46-57.46,57.46S4.12,93.31,4.12,61.58,29.85,4.12,61.58,4.12"/>
      <path class="cls-9" d="M61.58,4.33c31.61,0,57.25,25.64,57.25,57.25s-25.64,57.26-57.25,57.26S4.32,93.19,4.32,61.58,29.96,4.33,61.58,4.33"/>
      <path class="cls-23" d="M61.58,4.53c31.5,0,57.05,25.55,57.05,57.05s-25.54,57.05-57.05,57.05S4.53,93.08,4.53,61.58,30.08,4.53,61.58,4.53"/>
      <path class="cls-26" d="M61.58,4.74c31.38,0,56.84,25.45,56.84,56.84s-25.46,56.84-56.84,56.84S4.73,92.97,4.73,61.58,30.19,4.74,61.58,4.74"/>
      <path class="cls-24" d="M61.58,4.94c31.27,0,56.63,25.36,56.63,56.64s-25.36,56.64-56.63,56.64S4.94,92.85,4.94,61.58,30.3,4.94,61.58,4.94"/>
      <path class="cls-30" d="M61.58,5.15c31.16,0,56.43,25.27,56.43,56.43s-25.27,56.43-56.43,56.43S5.15,92.74,5.15,61.58,30.42,5.15,61.58,5.15"/>
      <path class="cls-28" d="M61.58,5.35c31.05,0,56.23,25.18,56.23,56.22s-25.18,56.23-56.23,56.23S5.35,92.62,5.35,61.58,30.53,5.35,61.58,5.35"/>
      <path class="cls-25" d="M61.58,5.56c30.94,0,56.02,25.09,56.02,56.02s-25.08,56.02-56.02,56.02S5.56,92.51,5.56,61.58,30.64,5.56,61.58,5.56"/>
      <path class="cls-25" d="M61.58,5.77c30.81,0,55.81,24.99,55.81,55.81s-24.99,55.81-55.81,55.81S5.76,92.4,5.76,61.58,30.76,5.77,61.58,5.77"/>
      <path class="cls-8" d="M61.58,5.97c30.7,0,55.6,24.9,55.6,55.61s-24.9,55.61-55.6,55.61S5.97,92.28,5.97,61.58,30.87,5.97,61.58,5.97"/>
      <path class="cls-8" d="M61.58,6.18c30.59,0,55.4,24.81,55.4,55.4s-24.81,55.4-55.4,55.4S6.18,92.17,6.18,61.58,30.98,6.18,61.58,6.18"/>
      <path class="cls-2" d="M61.58,6.38c30.48,0,55.19,24.72,55.19,55.19s-24.71,55.2-55.19,55.2S6.38,92.05,6.38,61.58,31.1,6.38,61.58,6.38"/>
      <path class="cls-4" d="M107.52,82.57c-7.97,17.42-25.55,29.52-45.95,29.52s-37.39-11.7-45.54-28.65c-1.56-2.8-1.91-5.06,0-7.18l12.43-12.04c1.76-1.97,3.94-1.84,5.7.04l26.55,26.25c1.06,1.03,1.93,1.03,2.87.01l25.89-26.62c1.93-2.06,4.26-1.96,6.02,0l12.03,11.47c1.85,2.4,1.35,4.8,0,7.2"/>
      <path class="cls-7" d="M58.36,35.79l-16.15,15.41c-1.58,1.67-.89,3.32,1.03,3.3h38.39c1.46-.23,1.66-2.07.5-3.2l-16.27-15.57c-2.58-2.47-4.32-3.13-7.5.05"/>
      <path class="cls-4" d="M34.3,58.73c1.93-1.74,5.36-2.38,7.67-.11l19.19,19.23c.62.58,1.32.55,1.95-.05l19.2-19.34c2.49-2.41,5.1-1.7,7.65,0l-26.51,26.83c-.79.84-1.67,1.07-2.75,0l-26.4-26.55Z"/>
      <path class="cls-21" d="M61.51,11.08h0c.43,0,.87,0,1.3.01h0c.43.01.86.03,1.3.05h0c.43.02.86.05,1.29.08h0c.42.04.85.07,1.28.11h0c.42.04.85.09,1.27.14h0c.42.05.84.11,1.26.18h0c.41.06.83.13,1.25.21h0c.42.08.83.15,1.23.24h0c.42.09.82.17,1.23.27h0c.41.09.81.19,1.22.29h0c.4.11.8.21,1.2.33h0c.4.11.8.23,1.2.36h0c.39.12.79.25,1.17.38.4.13.78.27,1.17.41h0c.39.14.77.29,1.16.44h0c.38.15.76.31,1.14.47h0c.37.16.75.32,1.13.49h0c.37.17.74.34,1.11.52h0c.37.18.73.36,1.1.54h0c.36.18.72.38,1.08.57.36.2.71.39,1.07.6h0c.35.2.7.41,1.05.62h0c.35.21.7.43,1.04.65.34.22.68.44,1.02.67h0c.34.23.67.46,1,.7h0c.34.23.66.47.98.71h0c.32.24.64.49.96.74.32.25.64.5.94.76h0c.31.26.62.52.93.78h0c.31.26.61.53.91.8.3.27.59.55.89.83.28.28.58.56.87.85h0c.28.29.56.57.84.86.28.29.55.59.83.89h0c.27.3.54.6.81.9.26.31.53.62.78.93h0c.26.31.51.63.76.95h0c.25.32.5.64.74.96.24.32.48.65.71.98h0c.23.33.47.66.7,1,.23.34.45.67.67,1.02h0c.22.34.43.69.65,1.03.21.35.41.7.62,1.05.21.36.4.71.59,1.06.2.36.39.72.58,1.08h0c.19.36.37.73.54,1.1h0c.17.37.35.74.52,1.11.17.37.33.75.49,1.13.16.38.31.75.47,1.14.15.38.29.77.44,1.15.14.39.28.78.41,1.17.13.39.26.78.38,1.18.12.39.25.79.35,1.19.11.4.23.8.33,1.2.1.4.2.81.3,1.22.09.41.18.82.26,1.23.09.41.17.82.24,1.24.07.42.14.83.21,1.25.07.42.12.84.17,1.26.06.42.1.84.15,1.27h0c.04.43.08.85.11,1.28.03.43.06.86.08,1.29.03.43.04.86.05,1.3.01.43.02.87.02,1.3v.25h0v.12h0v.13h0v.12s0,0,0,0v.12h0s0,.12,0,.12h0v.12h0v.12s0,0,0,0v.12h0s0,.12,0,.12h0v.12h0v.12h0v.12h0s0,.12,0,.12h0s0,.13,0,.13h0v.12h0s0,.13,0,.13h0s0,.12,0,.12h0s0,.12,0,.12h0s0,.12,0,.12h0s0,.12,0,.12h0v.12h0s-.01.12-.01.12h0s0,.12,0,.12h0s0,.12,0,.12h0s0,.12,0,.12h0s0,.12,0,.12h0s0,.12,0,.12h0s0,.12,0,.12h0s-.01.12-.01.12h0s0,.12,0,.12h0s0,.12,0,.12h0s0,.12,0,.12h0s-.01.12-.01.12h0s0,.12,0,.12h0s-.01.12-.01.12h0s0,.12,0,.12h0s0,.12,0,.12h0s-.02.12-.02.12h0s-.01.12-.01.12h0s0,.12,0,.12h0s-.01.12-.01.12h0s-.02.12-.02.12h0s0,.12,0,.12h0s-.02.12-.02.12h0s-.02.12-.02.12h0s-.01.12-.01.12h0s-.01.12-.01.12h0s-.01.12-.01.12h0s-.02.12-.02.12h0s-.01.12-.01.12h0s-.01.12-.01.12h0s-.01.11-.01.11h0s-.02.12-.02.12h0s-.01.12-.01.12h0s0,.12,0,.12h0s-.03.24-.03.24v.02l-.02.1h0s0,.12,0,.12v.02s-.01.11-.01.11h0s-.02.12-.02.12h0s-.01.11-.01.11v.02c-.03.19-.09.37-.18.54-.86,1.94-2.73,1.42-3.79.42l-42.14-40.31c-1.77-1.72-4.7-1.57-6.28-.03l-42.06,40.13c-2.18,2.12-4.54,1.75-5.19-.2-.1-.17-.16-.35-.19-.54v-.12s-.02-.01-.02-.01l-.02-.11h0s-.01-.12-.01-.12v-.02s-.02-.1-.02-.1h0s-.02-.12-.02-.12v-.02l-.03-.22h0s-.01-.12-.01-.12h0s-.02-.12-.02-.12h0s-.02-.12-.02-.12h0s-.01-.12-.01-.12h0s-.01-.12-.01-.12h0s-.01-.12-.01-.12h0s-.02-.12-.02-.12h0s-.01-.12-.01-.12h0s-.01-.12-.01-.12h0s-.01-.12-.01-.12h0s-.01-.12-.01-.12h0s-.01-.12-.01-.12h0s-.01-.12-.01-.12h0s0-.12,0-.12h0s-.01-.12-.01-.12h0s-.01-.12-.01-.12h0s-.01-.12-.01-.12h0s0-.12,0-.12h0s-.01-.12-.01-.12h0s0-.12,0-.12h0s-.01-.12-.01-.12h0s0-.12,0-.12h0s0-.12,0-.12h0s0-.12,0-.12h0s-.01-.12-.01-.12h0s0-.12,0-.12h0s0-.12,0-.12h0s0-.13,0-.13h0s-.01-.12-.01-.12h0s0-.12,0-.12h0s0-.12,0-.12h0s-.01-.12-.01-.12h0s0-.12,0-.12h0s0-.12,0-.12h0s0-.12,0-.12h0s-.01-.12-.01-.12h0s0-.12,0-.12h0s0-.12,0-.12h0s0-.12,0-.12h0s0-.12,0-.12h0s0-.13,0-.13h0v-.12h0s0-.12,0-.12h0s0-.12,0-.12h0v-.12h0v-.12h0v-.12s0,0,0,0v-.12s0,0,0,0v-.12h0v-.12h0v-.12s0,0,0,0v-.12s0,0,0,0v-.12h0v-.12h0s0-.12,0-.12h0v-.25c0-.43,0-.87.02-1.3.01-.44.02-.87.05-1.3.03-.43.05-.86.08-1.29.03-.43.07-.85.11-1.28h0c.05-.43.09-.85.15-1.27.05-.42.11-.84.18-1.26.06-.42.13-.83.21-1.25.07-.41.15-.83.24-1.24.08-.41.17-.82.27-1.23.09-.41.19-.81.3-1.22.1-.41.21-.8.32-1.2.11-.4.23-.8.36-1.19.12-.4.25-.79.38-1.18.13-.39.27-.78.41-1.17.15-.38.29-.77.44-1.15.15-.39.31-.76.46-1.14.16-.38.33-.75.5-1.13h0c.17-.37.34-.74.52-1.11h0c.18-.37.36-.73.55-1.1h0c.19-.36.37-.72.57-1.08.19-.36.39-.71.59-1.06.21-.35.42-.7.62-1.05.21-.34.43-.69.65-1.03h0c.21-.34.44-.68.67-1.02.23-.34.45-.67.69-1h0c.23-.33.47-.66.71-.98.24-.33.49-.65.74-.96h0c.25-.32.5-.64.76-.95h0c.26-.31.52-.62.78-.93.27-.3.53-.6.8-.9h0c.28-.3.55-.6.82-.89.28-.29.57-.58.85-.86h0c.29-.29.58-.57.87-.85.29-.28.59-.55.89-.83.3-.27.6-.54.9-.8.3-.26.61-.53.93-.78h0c.31-.26.62-.51.95-.76.32-.25.64-.5.96-.74.32-.24.65-.48.99-.71h0c.33-.24.66-.47.99-.7h0c.34-.23.68-.45,1.02-.67h0c.33-.22.68-.43,1.03-.65h0c.35-.21.7-.42,1.05-.62.35-.2.71-.4,1.06-.6h0c.36-.19.72-.39,1.08-.57h0c.37-.19.73-.37,1.1-.54h0c.37-.18.74-.35,1.11-.52h0c.37-.17.75-.33,1.12-.49h0c.38-.16.76-.32,1.14-.47h0c.38-.15.77-.29,1.15-.44h0c.39-.15.78-.28,1.17-.41h0c.39-.13.79-.26,1.18-.38h0c.39-.12.79-.24,1.19-.36h0c.4-.11.8-.22,1.21-.33h0c.4-.1.81-.2,1.22-.29h0c.41-.1.81-.19,1.23-.27h0c.41-.08.82-.16,1.23-.24h0c.41-.07.83-.14,1.24-.21h0c.42-.07.83-.12,1.26-.18h0c.42-.05.85-.1,1.27-.14h0c.42-.04.85-.08,1.27-.11h0c.43-.03.86-.06,1.29-.08h0c.43-.02.86-.04,1.29-.05h0c.43,0,.87-.01,1.3-.01"/>
    </g>
    <g>
      <path class="cls-32" d="M315.57,73.22c-.98.4-2.51.86-4.58,1.4-2.38.63-3.93,1.31-4.67,2.07-.73.75-1.09,1.73-1.09,2.93,0,1.36.4,2.51,1.21,3.43.82.92,1.83,1.38,3.07,1.38,1.08,0,2.16-.37,3.24-1.12,1.06-.74,1.8-1.63,2.22-2.66.41-1.03.62-2.88.62-5.57v-1.87ZM305.28,65.61l-6.98-1.54c.84-3.58,2.25-6.15,4.2-7.73,1.95-1.57,4.74-2.36,8.39-2.36,3.25,0,5.73.46,7.44,1.37,1.71.92,2.94,2.15,3.67,3.72.75,1.57,1.1,4.42,1.1,8.57l-.07,10.95c0,3.07.13,5.35.37,6.86.25,1.49.71,3.1,1.36,4.78h-7.61l-1.01-3.87c-1.31,1.56-2.71,2.72-4.21,3.51-1.5.78-3.09,1.16-4.8,1.16-2.82,0-5.14-.95-6.94-2.85-1.8-1.9-2.7-4.43-2.7-7.6,0-1.99.36-3.75,1.09-5.24.74-1.49,1.78-2.68,3.11-3.57,1.33-.89,3.48-1.69,6.4-2.37,3.57-.82,6.05-1.59,7.45-2.3,0-1.96-.14-3.25-.43-3.86-.27-.6-.79-1.1-1.54-1.49-.74-.4-1.79-.59-3.14-.59s-2.48.32-3.26.93c-.79.63-1.43,1.79-1.92,3.51ZM282.94,90.23v-48.93h7.7v48.93h-7.7ZM258.7,90.23l-11.72-35.44h8.08l5.48,18.09,1.57,6.04,1.63-6.04,5.54-18.09h7.89l-11.55,35.44h-6.91ZM223.12,41.3v17.99c1.24-1.77,2.58-3.11,4.06-3.99,1.48-.88,3.09-1.32,4.83-1.32,2.31,0,4.25.61,5.8,1.83,1.56,1.23,2.68,2.96,3.34,5.22.49,1.64.74,4.45.74,8.41v20.79h-7.68v-18.73c0-4.33-.27-7.06-.83-8.14-.79-1.47-2.11-2.21-3.98-2.21-1.98,0-3.52.8-4.63,2.39-1.09,1.58-1.65,4.57-1.65,8.92v17.76h-7.7v-48.93h7.7ZM199.27,73.22c-.98.4-2.51.86-4.59,1.4-2.38.63-3.93,1.31-4.67,2.07-.73.75-1.1,1.73-1.1,2.93,0,1.36.4,2.51,1.21,3.43.82.92,1.83,1.38,3.06,1.38,1.08,0,2.17-.37,3.24-1.12,1.06-.74,1.8-1.63,2.22-2.66.41-1.03.62-2.88.62-5.57v-1.87ZM188.98,65.61l-6.97-1.54c.84-3.58,2.25-6.15,4.19-7.73,1.95-1.57,4.74-2.36,8.4-2.36,3.25,0,5.73.46,7.44,1.37,1.71.92,2.94,2.15,3.67,3.72.74,1.57,1.1,4.42,1.1,8.57l-.07,10.95c0,3.07.12,5.35.36,6.86.25,1.49.71,3.1,1.37,4.78h-7.61l-1.01-3.87c-1.31,1.56-2.71,2.72-4.21,3.51-1.51.78-3.1,1.16-4.8,1.16-2.83,0-5.14-.95-6.94-2.85-1.8-1.9-2.7-4.43-2.7-7.6,0-1.99.36-3.75,1.09-5.24.74-1.49,1.77-2.68,3.11-3.57,1.33-.89,3.47-1.69,6.41-2.37,3.56-.82,6.05-1.59,7.45-2.3,0-1.96-.14-3.25-.42-3.86-.27-.6-.79-1.1-1.53-1.49-.75-.4-1.79-.59-3.15-.59s-2.47.32-3.26.93c-.78.63-1.43,1.79-1.92,3.51ZM135.46,90.23v-48.93h12.11l7.28,33.38,7.21-33.38h12.15v48.93h-7.51v-38.52l-7.98,38.52h-7.82l-7.91-38.52v38.52h-7.54Z"/>
      <g>
        <path class="cls-32" d="M274.82,98.28l-.1,2.09c-.56-.35-1.13-.61-1.7-.78-.57-.17-1.16-.25-1.77-.25-1.73,0-3.09.61-4.07,1.82-.98,1.21-1.47,2.9-1.47,5.08,0,2.29.46,4.06,1.4,5.29.93,1.23,2.25,1.85,3.97,1.85.43,0,.83-.04,1.19-.11.36-.08.7-.19,1.03-.35v-5.54h-2.83v-1.77h4.87v8.62c-.64.32-1.31.56-2.01.72-.7.16-1.44.23-2.22.23-2.45,0-4.33-.76-5.67-2.27-1.33-1.52-2-3.68-2-6.5s.69-4.88,2.08-6.46c1.39-1.58,3.27-2.38,5.65-2.38.68,0,1.33.06,1.95.18.62.12,1.18.3,1.7.54Z"/>
        <path class="cls-32" d="M285.32,102.19v2.05c-.11,0-.2-.01-.28-.02-.08,0-.16,0-.24,0-.9,0-1.59.31-2.07.92-.48.61-.72,1.5-.72,2.65v7.14h-2.02v-9.38c0-.46,0-.95-.03-1.46-.02-.51-.05-1.06-.09-1.67h1.88c.04.57.07,1,.08,1.29.01.29.02.57.02.82.32-.78.75-1.36,1.29-1.75.54-.39,1.19-.59,1.95-.59h.23Z"/>
        <path class="cls-32" d="M288.46,102.42h2.04v8.42c0,.85.16,1.49.49,1.91.33.42.81.63,1.46.63.79,0,1.42-.31,1.89-.92.47-.61.7-1.46.7-2.53v-7.51h2.05v9.36c0,.58,0,1.12.02,1.64.02.52.04,1.02.07,1.51h-1.87c-.02-.24-.04-.65-.06-1.21,0-.26-.02-.46-.02-.61-.31.67-.76,1.18-1.33,1.53-.58.36-1.23.54-1.96.54-1.11,0-1.97-.35-2.57-1.05-.6-.7-.9-1.69-.9-2.98v-8.72Z"/>
        <path class="cls-32" d="M304.05,113.28v7.01h-2.02v-14.63c0-.14-.02-.74-.06-1.82-.02-.59-.04-1.07-.06-1.43h1.9c.02.22.03.45.05.7.01.25.03.63.05,1.14.4-.71.86-1.24,1.38-1.58.52-.34,1.13-.51,1.84-.51,1.4,0,2.47.55,3.21,1.66.74,1.11,1.11,2.72,1.11,4.85s-.37,3.74-1.1,4.84c-.73,1.1-1.81,1.65-3.22,1.65-.67,0-1.26-.15-1.76-.46-.5-.31-.94-.78-1.32-1.43ZM304.05,109.41c0,1.3.23,2.3.69,3.01.46.71,1.1,1.06,1.93,1.06s1.52-.4,1.96-1.2c.44-.8.66-2,.66-3.6s-.22-2.81-.66-3.62c-.44-.81-1.08-1.21-1.94-1.21s-1.47.36-1.94,1.08c-.46.72-.7,1.72-.7,3.01v1.48Z"/>
        <path class="cls-32" d="M319.93,102.17c1.6,0,2.82.56,3.68,1.68.86,1.12,1.29,2.73,1.29,4.82s-.43,3.69-1.29,4.81c-.86,1.12-2.09,1.68-3.68,1.68s-2.82-.56-3.69-1.68c-.86-1.12-1.29-2.73-1.29-4.81s.43-3.69,1.29-4.82c.86-1.13,2.09-1.69,3.69-1.69ZM319.93,103.84c-.91,0-1.6.42-2.09,1.25-.49.83-.73,2.03-.73,3.59s.24,2.73.73,3.56c.49.83,1.18,1.24,2.09,1.24s1.6-.41,2.08-1.24c.48-.83.72-2.01.72-3.56s-.24-2.75-.72-3.59c-.48-.83-1.18-1.25-2.08-1.25Z"/>
      </g>
    </g>
  </g>
</svg>